<?xml version="1.0" encoding="utf-8"?>
<!-- Generator: Adobe Illustrator 14.0.0, SVG Export Plug-In . SVG Version: 6.00 Build 43363)  -->
<!DOCTYPE svg PUBLIC "-//W3C//DTD SVG 1.1//EN" "http://www.w3.org/Graphics/SVG/1.1/DTD/svg11.dtd">
<svg version="1.1" id="Layer_1" xmlns="http://www.w3.org/2000/svg" xmlns:xlink="http://www.w3.org/1999/xlink" x="0px" y="0px"
	 width="1649px" height="264px" viewBox="0 0 1649 264" enable-background="new 0 0 1649 264" xml:space="preserve">
<path fill="#FFFFFF" d="M1649,259.534c0,2.466-18.555,4.466-41.445,4.466H41.447C18.558,264,0,262,0,259.534V4.466
	C0,2,18.558,0,41.447,0h1566.108C1630.445,0,1649,2,1649,4.466V259.534z"/>
<path fill="#333333" d="M268.284,72.716c-2.118-2.118-2.118-5.452,0-7.57c2.118-2.046,5.453-2.046,7.57,0l31.727,31.722
	c0.982,0.982,1.588,2.347,1.588,3.859s-0.606,2.876-1.588,3.864l-31.727,31.722c-2.118,2.117-5.452,2.117-7.57,0
	c-2.118-2.119-2.118-5.453,0-7.57l22.715-22.639H210.36c-2.952,0.005-5.299-2.418-5.299-5.371s2.347-5.299,5.299-5.299h80.634
	L268.284,72.716z"/>
<path id="path7" fill="none" stroke="#FFFFFF" stroke-width="2.3404" d="M410.876,127.265c0.646,1.271,0,3.075,0,3.075"/>
<path id="path9" fill="#E6D367" d="M375.113,88.983c0.372,0,0.679-0.332,0.679-0.745c0-0.413-0.307-0.744-0.679-0.744
	c-0.385,0-0.689,0.331-0.689,0.744C374.424,88.651,374.729,88.983,375.113,88.983"/>
<path id="path11" fill="#E6D367" d="M411.85,89.198c0.374,0,0.678-0.329,0.678-0.747c0-0.408-0.304-0.735-0.678-0.735
	c-0.385,0-0.687,0.327-0.687,0.735C411.163,88.87,411.465,89.198,411.85,89.198"/>
<path id="path17" d="M367.752,126.012c-1.902-2.657-3.436-6.624-3.436-10.189l29.603-21.456l28.879,21.279
	c0,3.562-0.688,8.017-2.591,10.671l-26.467-19.079L367.752,126.012"/>
<g id="g73">
	<path id="path75" d="M371.416,146.247c-0.376-0.304-0.618-0.608-0.727-0.912c-0.151-0.422-0.125-0.832,0.077-1.229
		c0.153-0.301,0.396-0.541,0.729-0.722c0.331-0.179,0.696-0.248,1.094-0.204c0.398,0.041,0.939,0.237,1.624,0.586l2.868,1.457
		l-0.084,0.166l-0.229-0.115c-0.254-0.129-0.478-0.143-0.671-0.037c-0.121,0.07-0.269,0.274-0.442,0.615l-1.996,3.928
		c-0.191,0.377-0.269,0.636-0.232,0.779c0.05,0.19,0.19,0.344,0.42,0.461l0.229,0.115l-0.084,0.166l-2.627-1.336
		c-0.489-0.249-0.864-0.484-1.124-0.707c-0.395-0.336-0.639-0.699-0.736-1.094c-0.097-0.395-0.056-0.768,0.125-1.124
		c0.156-0.306,0.387-0.531,0.695-0.677C370.631,146.219,370.995,146.18,371.416,146.247z M373.642,147.684
		c-0.1-0.078-0.218-0.158-0.354-0.24c-0.136-0.082-0.291-0.166-0.461-0.254c-0.436-0.222-0.788-0.34-1.055-0.358
		c-0.268-0.019-0.51,0.042-0.725,0.176c-0.216,0.136-0.382,0.318-0.498,0.548c-0.181,0.355-0.191,0.733-0.028,1.131
		c0.162,0.398,0.521,0.739,1.077,1.021c0.299,0.152,0.585,0.256,0.857,0.313L373.642,147.684z M375.118,144.779
		c-0.306-0.258-0.627-0.471-0.964-0.644c-0.541-0.274-1.016-0.362-1.424-0.264c-0.407,0.099-0.702,0.328-0.885,0.687
		c-0.119,0.236-0.171,0.496-0.153,0.779c0.018,0.284,0.139,0.563,0.365,0.835s0.553,0.519,0.98,0.735
		c0.186,0.094,0.345,0.172,0.479,0.232c0.135,0.062,0.246,0.104,0.334,0.131L375.118,144.779z"/>
</g>
<g id="g81">
	<path id="path83" d="M363.459,144.835l-0.109,0.151l-1.954-1.418l0.109-0.15l0.207,0.15c0.218,0.158,0.45,0.188,0.699,0.091
		c0.118-0.043,0.288-0.218,0.511-0.524l1.624-2.238c0.401-0.555,0.768-0.943,1.099-1.168c0.331-0.227,0.737-0.332,1.217-0.316
		c0.48,0.015,0.997,0.223,1.552,0.624c0.602,0.437,0.982,0.874,1.144,1.31c0.16,0.434,0.178,0.875,0.053,1.323
		c-0.089,0.306-0.374,0.79-0.856,1.454l-1.564,2.158c-0.246,0.339-0.361,0.596-0.344,0.77s0.13,0.336,0.339,0.488l0.207,0.15
		l-0.109,0.15l-2.385-1.73l0.108-0.15l0.212,0.152c0.229,0.166,0.443,0.213,0.645,0.14c0.14-0.048,0.32-0.228,0.545-0.537
		l1.745-2.405c0.156-0.215,0.313-0.475,0.476-0.781c0.161-0.305,0.246-0.572,0.256-0.801c0.009-0.229-0.047-0.465-0.168-0.707
		c-0.121-0.24-0.323-0.463-0.605-0.668c-0.36-0.262-0.741-0.416-1.141-0.467c-0.398-0.049-0.739,0.012-1.021,0.182
		c-0.283,0.17-0.638,0.548-1.063,1.134l-1.62,2.235c-0.251,0.344-0.369,0.588-0.355,0.729c0.02,0.196,0.133,0.37,0.342,0.521
		L363.459,144.835z"/>
</g>
<g id="g89">
	<path id="path91" d="M360.425,133.027l1.28,1.293l-0.641,3.884c0.126,0.116,0.226,0.213,0.301,0.29
		c0.03,0.031,0.063,0.064,0.098,0.102s0.068,0.076,0.104,0.116l1.408-1.396c0.305-0.301,0.462-0.522,0.469-0.662
		c0.016-0.194-0.066-0.383-0.245-0.563l-0.188-0.188l0.133-0.131l2.056,2.076l-0.132,0.131l-0.181-0.183
		c-0.203-0.205-0.415-0.286-0.636-0.241c-0.123,0.022-0.323,0.17-0.6,0.444l-3.13,3.101c-0.305,0.301-0.461,0.522-0.469,0.662
		c-0.013,0.197,0.071,0.387,0.253,0.57l0.181,0.182l-0.132,0.131l-1.748-1.766c-0.51-0.514-0.848-0.931-1.015-1.249
		c-0.166-0.319-0.233-0.663-0.201-1.032c0.033-0.369,0.188-0.692,0.467-0.969c0.299-0.295,0.653-0.454,1.064-0.477
		c0.412-0.023,0.864,0.125,1.357,0.441l0.399-2.377c0.094-0.545,0.109-0.951,0.052-1.22s-0.203-0.548-0.437-0.841L360.425,133.027z
		 M361.342,138.934c-0.045-0.045-0.083-0.084-0.115-0.119c-0.031-0.034-0.058-0.063-0.079-0.084
		c-0.458-0.461-0.903-0.711-1.336-0.748c-0.432-0.037-0.803,0.1-1.112,0.406c-0.303,0.299-0.455,0.637-0.456,1.014
		c-0.003,0.378,0.151,0.723,0.46,1.035c0.137,0.138,0.345,0.303,0.623,0.494L361.342,138.934z"/>
</g>
<g id="g97">
	<path id="path99" d="M354.02,135.113l2.179-1.59l-0.884-1.209c-0.229-0.314-0.43-0.489-0.602-0.526
		c-0.228-0.05-0.504,0.031-0.83,0.245l-0.109-0.15l1.917-1.399l0.109,0.15c-0.239,0.234-0.384,0.397-0.433,0.49
		c-0.06,0.118-0.075,0.252-0.049,0.403c0.027,0.151,0.125,0.341,0.293,0.571l0.883,1.21l1.816-1.326
		c0.243-0.178,0.384-0.297,0.421-0.357c0.037-0.061,0.051-0.129,0.043-0.206c-0.009-0.077-0.068-0.191-0.18-0.343l-0.681-0.934
		c-0.228-0.312-0.414-0.522-0.561-0.631c-0.146-0.109-0.33-0.183-0.552-0.22c-0.291-0.045-0.67-0.032-1.137,0.039l-0.119-0.163
		l1.729-0.533l3.098,4.245l-0.15,0.11l-0.142-0.195c-0.096-0.13-0.216-0.23-0.363-0.302c-0.107-0.055-0.215-0.066-0.324-0.034
		s-0.298,0.146-0.566,0.342l-3.578,2.611c-0.35,0.255-0.539,0.447-0.569,0.576c-0.036,0.177,0.027,0.379,0.193,0.606l0.143,0.195
		l-0.15,0.11l-3.098-4.246l1.162-0.941l0.115,0.159c-0.248,0.268-0.401,0.477-0.459,0.625c-0.058,0.147-0.066,0.312-0.024,0.487
		c0.038,0.138,0.157,0.344,0.357,0.617L354.02,135.113z"/>
</g>
<g id="g105">
	<path id="path107" d="M352.555,124.809l1.202,2.351l1.169-0.078c0.288-0.019,0.49-0.059,0.606-0.118
		c0.092-0.047,0.15-0.133,0.176-0.257s-0.026-0.337-0.155-0.641l0.166-0.085l0.978,1.912l-0.165,0.085
		c-0.175-0.231-0.317-0.365-0.427-0.403c-0.221-0.079-0.599-0.098-1.132-0.059l-6.089,0.42l-0.08-0.157l3.969-4.696
		c0.319-0.378,0.504-0.667,0.554-0.868c0.05-0.2,0.02-0.429-0.093-0.684l0.166-0.085l1.226,2.396l-0.167,0.084
		c-0.135-0.235-0.259-0.378-0.371-0.429c-0.112-0.049-0.218-0.049-0.316,0.001c-0.131,0.067-0.308,0.233-0.53,0.498L352.555,124.809
		z M352.288,125.104l-1.927,2.285l2.994-0.198L352.288,125.104z"/>
</g>
<g id="g113">
	<path id="path115" d="M345.609,118.837l-0.177,0.056l-0.728-2.301l0.177-0.056l0.078,0.245c0.08,0.256,0.25,0.418,0.508,0.488
		c0.12,0.036,0.36-0.003,0.722-0.118l2.637-0.833c0.652-0.206,1.18-0.301,1.579-0.286c0.401,0.016,0.79,0.172,1.167,0.47
		c0.377,0.297,0.668,0.772,0.874,1.424c0.225,0.71,0.271,1.288,0.142,1.733c-0.129,0.445-0.378,0.811-0.745,1.095
		c-0.252,0.192-0.771,0.412-1.553,0.66l-2.542,0.803c-0.398,0.126-0.644,0.264-0.733,0.414c-0.09,0.149-0.096,0.347-0.018,0.594
		l0.076,0.244l-0.177,0.056l-0.888-2.81l0.177-0.056l0.079,0.249c0.085,0.269,0.23,0.434,0.437,0.495
		c0.14,0.044,0.393,0.008,0.757-0.107l2.833-0.896c0.253-0.08,0.535-0.194,0.847-0.344s0.539-0.313,0.683-0.493
		c0.145-0.179,0.239-0.401,0.284-0.667c0.047-0.266,0.018-0.565-0.087-0.897c-0.135-0.425-0.348-0.776-0.64-1.054
		c-0.291-0.277-0.602-0.431-0.93-0.463c-0.328-0.032-0.838,0.062-1.527,0.28l-2.633,0.832c-0.406,0.128-0.646,0.254-0.72,0.375
		c-0.102,0.169-0.113,0.377-0.035,0.623L345.609,118.837z"/>
</g>
<g id="g121">
	<path id="path123" d="M343.438,108.553c-0.065-0.883,0.213-1.672,0.835-2.369c0.623-0.696,1.436-1.082,2.438-1.156
		c1.033-0.077,1.915,0.186,2.646,0.787c0.73,0.602,1.13,1.365,1.198,2.292c0.069,0.936-0.205,1.747-0.822,2.434
		c-0.619,0.686-1.456,1.068-2.513,1.146c-1.079,0.08-1.988-0.222-2.725-0.907C343.855,110.184,343.503,109.442,343.438,108.553z
		 M343.812,108.621c0.044,0.608,0.306,1.08,0.785,1.414c0.596,0.416,1.435,0.584,2.518,0.504c1.11-0.083,1.947-0.383,2.51-0.902
		c0.428-0.398,0.62-0.896,0.576-1.495c-0.048-0.639-0.337-1.148-0.865-1.527c-0.528-0.379-1.33-0.53-2.403-0.45
		c-1.163,0.086-2.015,0.379-2.552,0.88C343.952,107.447,343.763,107.972,343.812,108.621z"/>
</g>
<g id="g129">
	<path id="path131" d="M343.902,101.959l2.674,0.19l0.088-1.239c0.021-0.284-0.027-0.497-0.144-0.638
		c-0.115-0.141-0.357-0.247-0.726-0.316l0.013-0.186l2.303,0.164l-0.013,0.186c-0.265-0.015-0.461,0.005-0.589,0.062
		c-0.13,0.057-0.229,0.14-0.299,0.251c-0.069,0.111-0.113,0.28-0.129,0.508l-0.088,1.239l2.137,0.152
		c0.345,0.025,0.573,0.019,0.688-0.017c0.085-0.027,0.162-0.093,0.23-0.195c0.091-0.142,0.142-0.292,0.153-0.453l0.018-0.246
		l0.186,0.013l-0.208,2.919l-0.186-0.013l0.018-0.241c0.02-0.281-0.048-0.491-0.203-0.629c-0.101-0.088-0.355-0.146-0.764-0.175
		l-4.394-0.312c-0.345-0.024-0.574-0.02-0.688,0.017c-0.086,0.027-0.163,0.091-0.23,0.19c-0.09,0.139-0.141,0.289-0.152,0.453
		l-0.018,0.241l-0.186-0.013l0.359-5.061l1.5,0.041l-0.013,0.176c-0.324,0.064-0.564,0.149-0.722,0.254
		c-0.156,0.104-0.274,0.239-0.354,0.403s-0.131,0.423-0.156,0.778L343.902,101.959z"/>
</g>
<g id="g137">
	<path id="path139" d="M349.869,91.722l-0.695,2.546l0.916,0.73c0.226,0.18,0.401,0.287,0.527,0.321
		c0.1,0.027,0.201,0.004,0.303-0.071c0.103-0.075,0.208-0.268,0.317-0.578l0.179,0.049l-0.565,2.071l-0.179-0.049
		c0.026-0.289,0.012-0.483-0.044-0.585c-0.11-0.208-0.375-0.477-0.797-0.807l-4.78-3.793l0.046-0.169l6.097-0.795
		c0.491-0.064,0.822-0.154,0.994-0.268c0.172-0.115,0.303-0.304,0.392-0.568l0.18,0.049l-0.709,2.595l-0.18-0.049
		c0.06-0.266,0.064-0.455,0.014-0.567c-0.049-0.113-0.126-0.184-0.232-0.212c-0.143-0.039-0.386-0.036-0.728,0.009L349.869,91.722z
		 M349.473,91.76l-2.963,0.39l2.346,1.871L349.473,91.76z"/>
</g>
<g id="g145">
	<path id="path147" d="M353.906,82.9l0.103-0.135l1.424,1.317l-2.254,4.775l-0.168-0.079l0.109-0.232
		c0.123-0.261,0.126-0.487,0.01-0.68c-0.067-0.109-0.276-0.247-0.629-0.413l-3.979-1.878c-0.385-0.182-0.646-0.253-0.783-0.214
		c-0.189,0.055-0.339,0.2-0.449,0.433l-0.109,0.232l-0.169-0.08l1.318-2.792l0.169,0.08c-0.158,0.326-0.236,0.57-0.234,0.732
		c0.001,0.162,0.039,0.291,0.113,0.384c0.073,0.095,0.294,0.228,0.661,0.401l3.875,1.829c0.251,0.119,0.435,0.176,0.552,0.172
		c0.081-0.006,0.154-0.04,0.221-0.102s0.193-0.291,0.381-0.688l0.212-0.45c0.224-0.473,0.346-0.821,0.365-1.045
		c0.021-0.224-0.02-0.457-0.123-0.698C354.419,83.527,354.213,83.238,353.906,82.9z"/>
</g>
<g id="g153">
	<path id="path155" d="M353.592,74.083l2.005,1.174l-0.088,0.129c-0.691-0.218-1.271-0.254-1.739-0.105
		c-0.47,0.146-0.855,0.444-1.159,0.891c-0.255,0.375-0.39,0.777-0.405,1.208c-0.015,0.431,0.126,0.875,0.424,1.331
		c0.298,0.456,0.757,0.894,1.375,1.314c0.51,0.347,1.008,0.565,1.493,0.656c0.485,0.091,0.939,0.04,1.363-0.153
		c0.423-0.193,0.777-0.5,1.063-0.921c0.249-0.366,0.391-0.742,0.424-1.129c0.033-0.387-0.068-0.906-0.307-1.558l0.172-0.073
		c0.309,0.624,0.452,1.204,0.429,1.739s-0.212,1.063-0.564,1.581c-0.635,0.934-1.474,1.422-2.515,1.464
		c-0.776,0.032-1.514-0.189-2.212-0.665c-0.563-0.382-0.995-0.86-1.295-1.433c-0.3-0.573-0.429-1.168-0.387-1.787
		c0.041-0.619,0.24-1.19,0.597-1.714c0.277-0.407,0.649-0.741,1.118-1.002c0.141-0.075,0.228-0.137,0.261-0.188
		c0.052-0.075,0.069-0.158,0.055-0.249c-0.025-0.123-0.095-0.245-0.207-0.366L353.592,74.083z"/>
</g>
<g id="g161">
	<path id="path163" d="M357.253,69.905c0.609-0.642,1.383-0.966,2.316-0.973c0.934-0.008,1.766,0.335,2.495,1.028
		c0.751,0.713,1.148,1.542,1.194,2.488c0.046,0.946-0.252,1.754-0.892,2.428c-0.646,0.68-1.432,1.022-2.354,1.026
		c-0.924,0.003-1.77-0.359-2.537-1.089c-0.785-0.746-1.172-1.622-1.16-2.627C356.326,71.311,356.639,70.551,357.253,69.905z
		 M357.454,70.227c-0.42,0.442-0.594,0.953-0.52,1.532c0.092,0.721,0.532,1.456,1.319,2.204c0.807,0.767,1.592,1.184,2.354,1.252
		c0.582,0.049,1.08-0.144,1.493-0.579c0.441-0.464,0.625-1.02,0.55-1.666c-0.074-0.646-0.502-1.341-1.282-2.082
		c-0.846-0.804-1.635-1.236-2.366-1.298C358.418,69.543,357.901,69.755,357.454,70.227z"/>
</g>
<g id="g169">
	<path id="path171" d="M364.149,68.004l2.527-1.911l-1.176-1.556c-0.211-0.278-0.366-0.449-0.468-0.51
		c-0.078-0.047-0.178-0.062-0.3-0.045c-0.163,0.022-0.309,0.083-0.438,0.18l-0.192,0.146l-0.113-0.148l2.327-1.759l0.112,0.148
		l-0.192,0.146c-0.129,0.097-0.227,0.219-0.295,0.368c-0.054,0.107-0.063,0.217-0.028,0.327c0.035,0.11,0.154,0.299,0.356,0.566
		l2.654,3.51c0.208,0.276,0.362,0.444,0.464,0.506c0.077,0.046,0.176,0.063,0.295,0.048c0.166-0.025,0.313-0.086,0.442-0.183
		l0.191-0.146l0.113,0.148l-2.326,1.759l-0.113-0.148l0.193-0.146c0.222-0.168,0.333-0.355,0.337-0.563
		c0.002-0.136-0.121-0.367-0.367-0.693l-1.253-1.657l-2.527,1.911l1.253,1.657c0.208,0.276,0.363,0.444,0.464,0.506
		c0.078,0.046,0.177,0.062,0.3,0.045c0.163-0.023,0.31-0.083,0.438-0.18l0.196-0.148l0.111,0.148l-2.33,1.762l-0.112-0.148
		l0.193-0.146c0.224-0.17,0.338-0.359,0.341-0.566c-0.001-0.134-0.125-0.365-0.371-0.691l-2.654-3.51
		c-0.211-0.278-0.366-0.448-0.468-0.51c-0.077-0.047-0.176-0.063-0.295-0.048c-0.166,0.025-0.313,0.086-0.441,0.183l-0.192,0.146
		l-0.112-0.148l2.33-1.763l0.112,0.149l-0.196,0.148c-0.129,0.097-0.227,0.22-0.296,0.368c-0.05,0.106-0.059,0.214-0.024,0.325
		c0.033,0.111,0.151,0.3,0.354,0.568L364.149,68.004z"/>
</g>
<g id="g177">
	<path id="path179" d="M370.518,59.904c0.784-0.411,1.62-0.469,2.506-0.174c0.886,0.295,1.563,0.887,2.03,1.778
		c0.48,0.918,0.589,1.832,0.328,2.74c-0.262,0.91-0.805,1.58-1.627,2.01c-0.832,0.436-1.686,0.506-2.561,0.211
		c-0.875-0.295-1.559-0.912-2.051-1.85c-0.501-0.959-0.585-1.913-0.249-2.861C369.187,60.936,369.728,60.317,370.518,59.904z
		 M370.604,60.273c-0.54,0.283-0.869,0.71-0.985,1.283c-0.146,0.712,0.033,1.549,0.537,2.511c0.517,0.986,1.124,1.635,1.825,1.945
		c0.534,0.234,1.068,0.212,1.6-0.066c0.567-0.297,0.92-0.764,1.059-1.4c0.138-0.636-0.043-1.431-0.542-2.384
		c-0.542-1.033-1.149-1.697-1.821-1.992C371.736,59.938,371.18,59.972,370.604,60.273z"/>
</g>
<g id="g185">
	<path id="path187" d="M381.809,60.811l0.168-0.02l0.046,1.94l-4.996,1.708l-0.061-0.176l0.243-0.083
		c0.273-0.093,0.438-0.249,0.494-0.467c0.032-0.124-0.015-0.37-0.141-0.738l-1.424-4.164c-0.138-0.403-0.269-0.64-0.392-0.711
		c-0.172-0.097-0.38-0.104-0.623-0.021l-0.244,0.083l-0.06-0.176l2.922-0.999l0.061,0.176c-0.344,0.114-0.573,0.228-0.688,0.341
		c-0.115,0.113-0.181,0.23-0.197,0.349c-0.017,0.119,0.041,0.371,0.173,0.754l1.386,4.054c0.091,0.264,0.177,0.436,0.263,0.517
		c0.06,0.054,0.136,0.083,0.226,0.087c0.09,0.004,0.344-0.064,0.759-0.207l0.472-0.161c0.494-0.169,0.829-0.324,1.005-0.466
		c0.174-0.141,0.313-0.333,0.414-0.575C381.714,61.616,381.779,61.267,381.809,60.811z"/>
</g>
<g id="g193">
	<path id="path195" d="M383.77,64.097l-0.05-0.215c0.311-0.189,0.531-0.421,0.662-0.697c0.131-0.276,0.166-0.545,0.106-0.806
		c-0.015-0.062-0.041-0.111-0.081-0.147c-0.029-0.024-0.056-0.034-0.078-0.028c-0.036,0.008-0.106,0.059-0.213,0.152
		c-0.052,0.043-0.11,0.072-0.176,0.087c-0.161,0.037-0.299,0.019-0.415-0.054c-0.117-0.073-0.194-0.192-0.232-0.359
		c-0.037-0.16-0.008-0.312,0.089-0.454c0.096-0.143,0.232-0.234,0.408-0.275c0.216-0.049,0.43,0,0.642,0.149
		c0.211,0.149,0.353,0.379,0.424,0.689c0.078,0.336,0.033,0.676-0.134,1.019C384.555,63.5,384.237,63.813,383.77,64.097z"/>
</g>
<g id="g201">
	<path id="path203" d="M393.221,54.256l0.186,1.59l-0.19,0.013c-0.057-0.279-0.12-0.476-0.191-0.592
		c-0.118-0.187-0.266-0.32-0.444-0.4c-0.178-0.08-0.409-0.11-0.689-0.091l-0.958,0.066l0.359,5.197
		c0.029,0.418,0.093,0.676,0.189,0.773c0.137,0.132,0.337,0.188,0.603,0.17l0.235-0.016l0.013,0.186l-2.885,0.2l-0.013-0.186
		l0.241-0.017c0.287-0.02,0.485-0.121,0.593-0.303c0.066-0.113,0.087-0.359,0.061-0.74l-0.359-5.198l-0.817,0.057
		c-0.318,0.022-0.543,0.061-0.673,0.117c-0.17,0.076-0.311,0.208-0.421,0.397c-0.111,0.189-0.168,0.438-0.17,0.747L387.7,56.24
		l-0.029-1.601L393.221,54.256z"/>
</g>
<g id="g209">
	<path id="path211" d="M397.99,54.329c0.882,0.069,1.621,0.464,2.215,1.185c0.594,0.721,0.852,1.583,0.771,2.585
		c-0.079,1.033-0.474,1.864-1.179,2.495c-0.706,0.631-1.521,0.91-2.446,0.837c-0.936-0.073-1.696-0.468-2.28-1.183
		c-0.585-0.715-0.836-1.601-0.753-2.657c0.084-1.079,0.521-1.931,1.311-2.556C396.313,54.495,397.102,54.259,397.99,54.329z
		 M397.866,54.688c-0.608-0.048-1.114,0.14-1.518,0.562c-0.501,0.526-0.795,1.33-0.88,2.413c-0.087,1.11,0.083,1.982,0.511,2.618
		c0.329,0.483,0.792,0.748,1.391,0.795c0.638,0.05,1.185-0.158,1.64-0.623c0.456-0.465,0.727-1.234,0.811-2.308
		c0.091-1.163-0.069-2.048-0.482-2.656C399.005,55.005,398.514,54.738,397.866,54.688z"/>
</g>
<g id="g217">
	<path id="path219" d="M406.206,59.266c0.437,0.208,0.744,0.446,0.921,0.716c0.244,0.375,0.314,0.78,0.211,1.214
		c-0.078,0.329-0.258,0.62-0.538,0.872c-0.281,0.252-0.62,0.404-1.016,0.456c-0.397,0.052-0.969-0.012-1.716-0.19l-3.132-0.748
		l0.045-0.181l0.249,0.06c0.276,0.066,0.496,0.026,0.659-0.122c0.103-0.096,0.197-0.33,0.286-0.702l1.022-4.285
		c0.099-0.411,0.112-0.682,0.044-0.812c-0.093-0.174-0.266-0.291-0.517-0.351l-0.25-0.06l0.044-0.181l2.866,0.685
		c0.534,0.127,0.954,0.269,1.258,0.424c0.463,0.234,0.785,0.531,0.973,0.891c0.186,0.36,0.232,0.734,0.141,1.122
		c-0.08,0.333-0.252,0.606-0.517,0.82C406.975,59.108,406.632,59.233,406.206,59.266z M402.95,61.559
		c0.356,0.178,0.721,0.312,1.089,0.399c0.59,0.141,1.071,0.116,1.445-0.076c0.372-0.192,0.605-0.483,0.698-0.875
		c0.063-0.258,0.052-0.522-0.031-0.794c-0.084-0.271-0.269-0.513-0.553-0.726c-0.282-0.212-0.657-0.374-1.124-0.485
		c-0.201-0.048-0.376-0.086-0.521-0.114c-0.146-0.028-0.264-0.044-0.355-0.049L402.95,61.559z M403.707,58.39
		c0.115,0.051,0.248,0.101,0.401,0.15c0.15,0.048,0.32,0.094,0.507,0.139c0.476,0.113,0.847,0.147,1.109,0.102
		c0.264-0.045,0.484-0.159,0.663-0.341c0.178-0.182,0.296-0.398,0.355-0.649c0.093-0.388,0.014-0.757-0.236-1.106
		c-0.251-0.349-0.68-0.596-1.286-0.741c-0.326-0.078-0.629-0.112-0.905-0.103L403.707,58.39z"/>
</g>
<g id="g225">
	<path id="path227" d="M412.649,62.822l-2.435-1.022l-0.844,0.813c-0.208,0.2-0.337,0.36-0.388,0.481
		c-0.04,0.096-0.03,0.199,0.03,0.31c0.062,0.111,0.237,0.241,0.531,0.39l-0.072,0.171l-1.979-0.832l0.072-0.171
		c0.281,0.064,0.478,0.075,0.586,0.033c0.22-0.082,0.521-0.31,0.903-0.684l4.386-4.245l0.161,0.068l-0.009,6.149
		c0,0.495,0.045,0.834,0.137,1.02c0.092,0.187,0.262,0.34,0.512,0.463l-0.071,0.172l-2.48-1.042l0.072-0.171
		c0.255,0.093,0.441,0.122,0.561,0.088c0.117-0.034,0.197-0.102,0.242-0.204c0.056-0.136,0.085-0.376,0.085-0.722L412.649,62.822z
		 M412.664,62.425l0.001-2.989l-2.162,2.081L412.664,62.425z"/>
</g>
<g id="g233">
	<path id="path235" d="M422.961,63.211l-1.09,2.052l-0.132-0.082c0.188-0.699,0.2-1.28,0.034-1.743
		c-0.167-0.463-0.48-0.836-0.938-1.121c-0.385-0.239-0.793-0.357-1.224-0.354c-0.433,0.002-0.869,0.162-1.313,0.479
		c-0.442,0.317-0.862,0.793-1.257,1.428c-0.324,0.524-0.521,1.031-0.593,1.52c-0.071,0.489-0.001,0.941,0.209,1.355
		c0.211,0.415,0.532,0.756,0.965,1.025c0.376,0.233,0.758,0.358,1.145,0.376c0.39,0.018,0.902-0.106,1.546-0.371l0.079,0.167
		c-0.61,0.335-1.185,0.503-1.721,0.501s-1.07-0.167-1.603-0.498c-0.96-0.596-1.482-1.413-1.567-2.452
		c-0.063-0.774,0.126-1.52,0.571-2.237c0.358-0.578,0.817-1.029,1.378-1.353c0.56-0.324,1.148-0.478,1.769-0.462
		s1.199,0.19,1.737,0.524c0.419,0.26,0.769,0.619,1.049,1.077c0.08,0.137,0.146,0.221,0.198,0.253
		c0.076,0.048,0.16,0.062,0.251,0.043c0.121-0.031,0.24-0.105,0.357-0.223L422.961,63.211z"/>
</g>
<g id="g241">
	<path id="path243" d="M429.091,68.257l-1.396,1.857l-0.118-0.102c0.297-0.661,0.397-1.233,0.305-1.716s-0.343-0.9-0.751-1.253
		c-0.343-0.295-0.728-0.476-1.154-0.541s-0.884,0.024-1.37,0.268c-0.487,0.244-0.976,0.649-1.464,1.215
		c-0.402,0.467-0.678,0.937-0.822,1.408c-0.146,0.472-0.147,0.929-0.004,1.372c0.143,0.442,0.406,0.83,0.794,1.163
		c0.335,0.289,0.691,0.473,1.071,0.55s0.907,0.036,1.582-0.125l0.054,0.178c-0.655,0.236-1.247,0.312-1.776,0.228
		s-1.031-0.332-1.506-0.742c-0.855-0.738-1.244-1.626-1.166-2.667c0.057-0.774,0.361-1.481,0.913-2.121
		c0.443-0.516,0.968-0.889,1.57-1.122c0.604-0.232,1.212-0.292,1.82-0.181c0.609,0.112,1.154,0.375,1.634,0.79
		c0.373,0.322,0.662,0.73,0.868,1.227c0.059,0.148,0.11,0.241,0.156,0.281c0.068,0.059,0.148,0.086,0.241,0.082
		c0.125-0.011,0.255-0.066,0.388-0.164L429.091,68.257z"/>
</g>
<g id="g249">
	<path id="path251" d="M432.838,72.39c0.568,0.679,0.802,1.483,0.702,2.412c-0.101,0.929-0.535,1.715-1.307,2.36
		c-0.796,0.665-1.664,0.965-2.608,0.902s-1.714-0.451-2.31-1.163c-0.603-0.72-0.854-1.539-0.75-2.457
		c0.103-0.918,0.56-1.717,1.372-2.396c0.831-0.695,1.745-0.978,2.742-0.851C431.547,71.309,432.266,71.706,432.838,72.39z
		 M432.495,72.552c-0.392-0.468-0.879-0.698-1.463-0.691c-0.728,0.009-1.507,0.361-2.34,1.058c-0.854,0.714-1.359,1.446-1.515,2.196
		c-0.116,0.573,0.021,1.09,0.404,1.55c0.41,0.491,0.941,0.737,1.592,0.737c0.651,0,1.391-0.345,2.216-1.035
		c0.896-0.749,1.414-1.483,1.561-2.203C433.064,73.589,432.912,73.052,432.495,72.552z"/>
</g>
<g id="g257">
	<path id="path259" d="M435.174,84.51l-1.219-2.342l-1.169,0.086c-0.287,0.021-0.489,0.062-0.604,0.122
		c-0.093,0.048-0.149,0.134-0.175,0.258c-0.024,0.124,0.029,0.337,0.16,0.64l-0.166,0.085l-0.99-1.905l0.165-0.086
		c0.176,0.23,0.318,0.363,0.43,0.4c0.222,0.077,0.6,0.094,1.133,0.051l6.085-0.463l0.082,0.156l-3.938,4.724
		c-0.315,0.38-0.498,0.67-0.547,0.872c-0.048,0.201-0.017,0.428,0.098,0.683l-0.165,0.086l-1.241-2.387l0.165-0.086
		c0.137,0.235,0.263,0.377,0.375,0.426c0.111,0.049,0.218,0.048,0.314-0.003c0.131-0.068,0.308-0.235,0.527-0.501L435.174,84.51z
		 M435.438,84.213l1.911-2.298l-2.991,0.219L435.438,84.213z"/>
</g>
<g id="g265">
	<path id="path267" d="M441.01,86.13l0.549,1.768l-3.646,5.498l3.756-1.167c0.4-0.124,0.636-0.247,0.707-0.367
		c0.098-0.16,0.106-0.369,0.027-0.625l-0.07-0.226l0.178-0.055l0.704,2.267l-0.178,0.055l-0.071-0.23
		c-0.086-0.275-0.229-0.445-0.432-0.508c-0.125-0.039-0.369-0.001-0.734,0.112l-5.489,1.705l-0.054-0.172l3.911-5.922l-4.011,1.246
		c-0.399,0.124-0.636,0.245-0.709,0.362c-0.098,0.164-0.105,0.372-0.027,0.625l0.072,0.23l-0.178,0.055l-0.704-2.267l0.178-0.055
		l0.07,0.226c0.086,0.279,0.229,0.45,0.433,0.513c0.125,0.039,0.369,0.001,0.734-0.112l4.528-1.407
		c0.161-0.257,0.264-0.446,0.304-0.566c0.04-0.119,0.062-0.283,0.063-0.491c0-0.102-0.029-0.247-0.088-0.436L441.01,86.13z"/>
</g>
<g id="g273">
	<path id="path275" d="M436.704,95.277l0.184-0.025l0.035,0.254c0.04,0.286,0.159,0.476,0.358,0.57
		c0.119,0.058,0.37,0.061,0.752,0.008l4.363-0.602c0.423-0.059,0.68-0.142,0.772-0.249c0.128-0.149,0.175-0.352,0.14-0.608
		l-0.034-0.254l0.185-0.025l0.379,2.75c0.141,1.009,0.131,1.793-0.025,2.352c-0.156,0.558-0.479,1.034-0.971,1.428
		c-0.491,0.395-1.086,0.64-1.787,0.737c-0.938,0.13-1.765-0.048-2.475-0.532c-0.792-0.543-1.279-1.471-1.46-2.783L436.704,95.277z
		 M437.458,97.137c-0.035,0.435-0.032,0.795,0.007,1.081c0.106,0.771,0.465,1.372,1.077,1.806c0.61,0.434,1.38,0.586,2.306,0.458
		c0.935-0.129,1.636-0.484,2.104-1.066c0.468-0.583,0.646-1.272,0.536-2.069c-0.041-0.299-0.137-0.632-0.285-1.001L437.458,97.137z"
		/>
</g>
<g id="g281">
	<path id="path283" d="M443.976,107.608l-2.674-0.187l-0.087,1.239c-0.021,0.284,0.028,0.497,0.145,0.638
		c0.115,0.141,0.357,0.246,0.728,0.315l-0.014,0.186l-2.304-0.162l0.015-0.186c0.264,0.015,0.46-0.005,0.589-0.062
		c0.129-0.056,0.228-0.14,0.298-0.251c0.069-0.111,0.113-0.28,0.129-0.507l0.087-1.239l-2.138-0.15
		c-0.345-0.024-0.573-0.019-0.688,0.018c-0.086,0.027-0.162,0.093-0.229,0.196c-0.091,0.141-0.142,0.292-0.152,0.453l-0.018,0.246
		l-0.187-0.013l0.204-2.919l0.187,0.013l-0.018,0.24c-0.02,0.281,0.048,0.491,0.202,0.629c0.103,0.088,0.356,0.146,0.766,0.175
		l4.395,0.308c0.345,0.025,0.573,0.019,0.688-0.017c0.086-0.027,0.162-0.091,0.229-0.19c0.09-0.139,0.141-0.289,0.152-0.453
		l0.017-0.241l0.187,0.013l-0.354,5.062l-1.499-0.04l0.013-0.175c0.323-0.065,0.563-0.15,0.722-0.255
		c0.155-0.105,0.273-0.239,0.354-0.404c0.078-0.164,0.131-0.423,0.155-0.778L443.976,107.608z"/>
</g>
<g id="g289">
	<path id="path291" d="M436.866,113.89l-0.185-0.032l0.507-2.877l0.183,0.032l-0.042,0.238c-0.049,0.277-0.003,0.493,0.137,0.647
		c0.093,0.098,0.34,0.182,0.742,0.253l4.339,0.762c0.34,0.06,0.568,0.078,0.686,0.054c0.089-0.019,0.171-0.074,0.249-0.166
		c0.104-0.131,0.171-0.276,0.198-0.435l0.042-0.237l0.184,0.032l-0.506,2.877l-0.184-0.032l0.043-0.243
		c0.048-0.274,0.002-0.488-0.139-0.642c-0.091-0.101-0.338-0.188-0.741-0.258l-4.338-0.762c-0.34-0.06-0.569-0.078-0.686-0.054
		c-0.089,0.019-0.172,0.075-0.249,0.171c-0.104,0.128-0.171,0.271-0.198,0.43L436.866,113.89z"/>
</g>
<g id="g297">
	<path id="path299" d="M434.47,121.464l0.555-1.734l3.738-1.229c0.045-0.165,0.084-0.299,0.117-0.401
		c0.013-0.042,0.028-0.086,0.045-0.133c0.018-0.047,0.035-0.096,0.056-0.146l-1.889-0.602c-0.409-0.13-0.678-0.167-0.805-0.109
		c-0.18,0.076-0.309,0.236-0.386,0.479l-0.08,0.254l-0.179-0.056l0.89-2.783l0.177,0.056l-0.077,0.244
		c-0.088,0.275-0.062,0.5,0.08,0.675c0.077,0.099,0.302,0.208,0.672,0.326l4.196,1.339c0.409,0.13,0.678,0.167,0.806,0.109
		c0.181-0.08,0.311-0.243,0.389-0.488l0.076-0.244l0.18,0.056l-0.756,2.367c-0.222,0.69-0.434,1.183-0.639,1.478
		s-0.479,0.514-0.82,0.656c-0.345,0.142-0.701,0.154-1.075,0.034c-0.399-0.127-0.704-0.368-0.915-0.722s-0.289-0.824-0.236-1.409
		l-2.292,0.747c-0.525,0.17-0.894,0.343-1.104,0.518c-0.211,0.176-0.393,0.435-0.543,0.777L434.47,121.464z M439.281,117.916
		c-0.021,0.061-0.037,0.113-0.055,0.158c-0.015,0.044-0.026,0.081-0.036,0.109c-0.197,0.62-0.212,1.129-0.044,1.53
		c0.168,0.401,0.459,0.667,0.873,0.799c0.405,0.13,0.776,0.108,1.111-0.065c0.335-0.173,0.569-0.469,0.702-0.887
		c0.06-0.186,0.109-0.446,0.149-0.781L439.281,117.916z"/>
</g>
<g id="g305">
	<path id="path307" d="M439.306,126.125l-2.416-1.196l-0.664,1.343c-0.174,0.349-0.235,0.607-0.188,0.776
		c0.061,0.225,0.261,0.432,0.601,0.623l-0.083,0.167l-2.127-1.053l0.083-0.167c0.317,0.105,0.529,0.158,0.636,0.157
		c0.132-0.002,0.258-0.049,0.379-0.143c0.121-0.094,0.245-0.268,0.371-0.523l0.665-1.343l-2.016-0.997
		c-0.271-0.133-0.439-0.203-0.511-0.208s-0.139,0.014-0.203,0.057c-0.063,0.042-0.138,0.148-0.221,0.317l-0.515,1.037
		c-0.171,0.345-0.271,0.608-0.3,0.788c-0.028,0.18-0.009,0.377,0.062,0.591c0.094,0.278,0.279,0.608,0.56,0.99l-0.089,0.18
		l-1.271-1.286l2.33-4.709l0.167,0.083l-0.105,0.216c-0.071,0.144-0.104,0.298-0.101,0.461c0,0.12,0.04,0.221,0.119,0.303
		s0.269,0.196,0.564,0.344l3.971,1.965c0.388,0.192,0.646,0.271,0.775,0.238c0.173-0.049,0.322-0.2,0.446-0.452l0.106-0.216
		l0.167,0.083l-2.33,4.71l-1.372-0.595l0.087-0.175c0.354,0.096,0.608,0.135,0.768,0.118c0.156-0.017,0.306-0.085,0.442-0.204
		c0.104-0.098,0.231-0.299,0.382-0.602L439.306,126.125z"/>
</g>
<g id="g313">
	<path id="path315" d="M430.72,132.363l1.538-2.146l-0.604-1.003c-0.149-0.248-0.277-0.409-0.383-0.485
		c-0.087-0.061-0.188-0.074-0.311-0.039c-0.122,0.034-0.288,0.178-0.498,0.432l-0.152-0.108l1.253-1.745l0.15,0.108
		c-0.126,0.261-0.18,0.449-0.164,0.564c0.032,0.232,0.188,0.577,0.467,1.033l3.163,5.219l-0.103,0.144l-5.993-1.376
		c-0.482-0.109-0.823-0.143-1.024-0.094c-0.201,0.047-0.39,0.18-0.564,0.396l-0.151-0.109l1.567-2.187l0.151,0.108
		c-0.147,0.229-0.219,0.404-0.212,0.527c0.009,0.123,0.057,0.216,0.146,0.281c0.12,0.086,0.349,0.167,0.686,0.244L430.72,132.363z
		 M431.104,132.465l2.913,0.666l-1.547-2.57L431.104,132.465z"/>
</g>
<g id="g321">
	<path id="path323" d="M421.946,138.489l1.302-1.272l3.88,0.666c0.117-0.125,0.214-0.224,0.291-0.299
		c0.031-0.029,0.064-0.063,0.104-0.098c0.036-0.033,0.075-0.067,0.115-0.103l-1.385-1.417c-0.3-0.307-0.52-0.465-0.659-0.473
		c-0.193-0.018-0.383,0.064-0.564,0.242l-0.19,0.186l-0.13-0.133l2.089-2.042l0.13,0.133l-0.183,0.179
		c-0.206,0.202-0.288,0.414-0.246,0.635c0.021,0.123,0.17,0.324,0.441,0.603l3.079,3.149c0.301,0.308,0.521,0.465,0.66,0.474
		c0.196,0.015,0.388-0.069,0.571-0.25l0.184-0.179l0.131,0.133l-1.776,1.736c-0.519,0.507-0.938,0.843-1.256,1.008
		c-0.319,0.164-0.663,0.229-1.033,0.193s-0.691-0.192-0.966-0.474c-0.293-0.299-0.449-0.655-0.47-1.065
		c-0.021-0.412,0.13-0.863,0.45-1.355l-2.374-0.414c-0.545-0.098-0.95-0.116-1.22-0.061c-0.269,0.057-0.55,0.199-0.844,0.432
		L421.946,138.489z M427.86,137.609c-0.046,0.045-0.087,0.084-0.121,0.115c-0.035,0.031-0.063,0.058-0.084,0.078
		c-0.466,0.455-0.719,0.898-0.757,1.331c-0.039,0.433,0.093,0.804,0.396,1.115c0.298,0.306,0.636,0.459,1.012,0.463
		c0.378,0.004,0.725-0.147,1.037-0.454c0.14-0.136,0.306-0.343,0.497-0.621L427.86,137.609z"/>
</g>
<g id="g329">
	<path id="path331" d="M417.913,141.316l5.327,3.39l-2.474-3.827c-0.228-0.352-0.406-0.547-0.54-0.585
		c-0.181-0.051-0.384-0.003-0.607,0.142l-0.203,0.131l-0.102-0.156l1.994-1.288l0.102,0.155l-0.203,0.132
		c-0.242,0.155-0.366,0.341-0.373,0.552c-0.004,0.13,0.098,0.355,0.305,0.678l2.418,3.742c0.163,0.254,0.312,0.418,0.439,0.495
		c0.092,0.056,0.208,0.078,0.35,0.063c0.143-0.014,0.329-0.095,0.563-0.246l0.101,0.156l-1.622,1.047l-4.974-3.14l0.851,5.804
		l-1.622,1.047l-0.102-0.156l0.199-0.128c0.245-0.158,0.37-0.343,0.378-0.556c0.004-0.129-0.1-0.355-0.306-0.677l-2.418-3.743
		c-0.228-0.352-0.408-0.546-0.545-0.582c-0.18-0.052-0.383-0.005-0.607,0.142l-0.199,0.128l-0.1-0.156l2.433-1.572l0.101,0.157
		l-0.202,0.13c-0.245,0.158-0.369,0.344-0.373,0.553c-0.003,0.131,0.099,0.355,0.306,0.678l2.472,3.826l-0.902-6.246
		L417.913,141.316z"/>
</g>
<g id="g337">
	<path id="path339" d="M411.884,152.207l-0.915-2.173l0.171-0.073c0.231,0.395,0.472,0.684,0.72,0.871s0.534,0.296,0.861,0.33
		c0.326,0.033,0.632-0.01,0.917-0.13c0.32-0.136,0.545-0.347,0.673-0.63c0.127-0.285,0.14-0.553,0.032-0.803
		c-0.081-0.191-0.221-0.339-0.42-0.439c-0.289-0.151-0.875-0.268-1.758-0.352c-0.72-0.067-1.223-0.14-1.508-0.218
		c-0.286-0.077-0.535-0.207-0.747-0.386c-0.212-0.18-0.371-0.395-0.478-0.645c-0.2-0.477-0.188-0.965,0.035-1.465
		c0.225-0.5,0.627-0.873,1.207-1.117c0.184-0.076,0.359-0.135,0.532-0.174c0.103-0.025,0.324-0.053,0.667-0.082
		c0.342-0.029,0.554-0.062,0.634-0.096c0.077-0.033,0.128-0.082,0.153-0.146c0.024-0.065,0.019-0.176-0.021-0.33l0.173-0.072
		l0.906,2.154l-0.171,0.072c-0.271-0.416-0.521-0.709-0.751-0.875c-0.229-0.166-0.517-0.265-0.857-0.295
		c-0.344-0.031-0.681,0.024-1.015,0.165c-0.387,0.163-0.647,0.394-0.786,0.691c-0.138,0.299-0.147,0.587-0.03,0.864
		c0.064,0.154,0.173,0.293,0.323,0.416c0.152,0.121,0.346,0.213,0.582,0.272c0.159,0.042,0.571,0.101,1.236,0.175
		c0.664,0.075,1.148,0.154,1.45,0.237c0.303,0.083,0.559,0.208,0.767,0.375c0.209,0.167,0.368,0.38,0.479,0.64
		c0.188,0.451,0.181,0.912-0.027,1.385c-0.209,0.472-0.581,0.819-1.115,1.045c-0.334,0.141-0.722,0.207-1.165,0.201
		c-0.205-0.004-0.344,0.008-0.414,0.039c-0.081,0.034-0.137,0.086-0.167,0.155s-0.03,0.183-0.001,0.341L411.884,152.207z"/>
</g>
<g id="g371">
	<g>
		<g>
			<defs>
				<line id="SVGID_1_" x1="374.02" y1="125.596" x2="381.432" y2="125.596"/>
			</defs>
			<clipPath id="SVGID_2_">
				<use xlink:href="#SVGID_1_"  overflow="visible"/>
			</clipPath>
			<g id="g379" clip-path="url(#SVGID_2_)">
				<line id="line381" fill="none" x1="374.02" y1="125.596" x2="381.432" y2="125.596"/>
			</g>
		</g>
	</g>
</g>
<polyline id="polyline437" fill="#FFFFFF" points="403.248,125.296 403.734,124.922 403.248,125.296 "/>
<g>
	<circle fill="#BBBBBB" cx="113.304" cy="100.746" r="77.473"/>
	<g>
		<path fill="#FFFFFF" d="M149.352,104.911c0,7.291-2.993,13.2-6.687,13.2H81.738c-3.693,0-6.687-5.909-6.687-13.2v-7.333
			c0-7.29,2.994-13.2,6.687-13.2h60.926c3.694,0,6.687,5.91,6.687,13.2L149.352,104.911L149.352,104.911z"/>
		<g>
			<path fill="#333333" stroke="#333333" d="M152.669,60.692c-1.431-7.833-17.589-9.826-39.367-9.871
				c-21.779,0.045-37.937,2.039-39.368,9.871c-1.965,10.756-6.385,43.271-6.385,43.271c0,18.363,29.563,43.798,41.162,53.071
				c2.69,2.149,6.499,2.146,9.188-0.007c11.603-9.276,41.154-34.707,41.154-53.064C159.054,103.963,154.634,71.448,152.669,60.692z
				 M147.112,107.662c0,1.179-0.957,2.135-2.135,2.135h-63.35c-1.179,0-2.135-0.957-2.135-2.135V87.338
				c0-1.18,0.957-2.136,2.135-2.136h63.349c1.179,0,2.135,0.956,2.135,2.136L147.112,107.662L147.112,107.662z"/>
			<path fill="#333333" stroke="#333333" d="M92.593,92.789c-0.348-0.38-0.764-0.689-1.25-0.927
				c-0.485-0.237-1.016-0.356-1.59-0.356H85.21c-0.29,0-0.523,0.234-0.523,0.523v10.711c0,0.289,0.234,0.524,0.523,0.524h2.182
				c0.289,0,0.523-0.235,0.523-0.524v-2.563c0-0.29,0.235-0.524,0.524-0.524h1.397c0.574,0,1.102-0.113,1.582-0.34
				c0.48-0.226,0.889-0.529,1.225-0.911c0.337-0.381,0.599-0.817,0.787-1.309c0.188-0.491,0.281-0.996,0.281-1.515
				c0-0.497-0.099-0.991-0.298-1.482C93.215,93.606,92.941,93.169,92.593,92.789z M90.176,96.564
				c-0.171,0.182-0.356,0.273-0.555,0.273h-1.182c-0.29,0-0.524-0.234-0.524-0.523v-1.47c0-0.29,0.234-0.524,0.524-0.524h1.099
				c0.199,0,0.397,0.088,0.596,0.265c0.199,0.177,0.298,0.508,0.298,0.994C90.433,96.054,90.347,96.383,90.176,96.564L90.176,96.564
				z"/>
			<path fill="#333333" stroke="#333333" d="M104.674,93.311c-0.519-0.563-1.142-1.016-1.871-1.358
				c-0.729-0.342-1.541-0.514-2.435-0.514c-0.873,0-1.675,0.164-2.41,0.488c-0.734,0.327-1.369,0.762-1.905,1.309
				c-0.536,0.546-0.953,1.179-1.25,1.896c-0.298,0.718-0.448,1.463-0.448,2.235c0,0.762,0.144,1.502,0.431,2.219
				c0.287,0.718,0.689,1.355,1.209,1.912c0.518,0.558,1.142,1.008,1.871,1.351c0.729,0.342,1.54,0.513,2.434,0.513
				c0.872,0,1.675-0.166,2.41-0.497c0.734-0.332,1.366-0.77,1.896-1.316c0.53-0.546,0.944-1.176,1.242-1.888
				c0.298-0.712,0.447-1.455,0.447-2.228c0-0.75-0.141-1.484-0.422-2.202C105.593,94.515,105.193,93.874,104.674,93.311
				L104.674,93.311z M102.861,98.511c-0.105,0.375-0.265,0.709-0.481,1.001c-0.215,0.293-0.494,0.53-0.836,0.712
				c-0.343,0.182-0.746,0.273-1.208,0.273c-0.464,0-0.864-0.088-1.201-0.266c-0.337-0.176-0.616-0.408-0.836-0.695
				c-0.221-0.288-0.387-0.616-0.497-0.986c-0.111-0.369-0.166-0.753-0.166-1.151c0-0.386,0.052-0.764,0.157-1.134
				c0.105-0.37,0.268-0.702,0.489-0.994c0.221-0.292,0.499-0.527,0.836-0.704c0.337-0.176,0.737-0.265,1.201-0.265
				c0.453,0,0.847,0.085,1.184,0.256c0.336,0.171,0.618,0.397,0.844,0.679c0.227,0.281,0.395,0.607,0.505,0.977
				s0.166,0.753,0.166,1.151C103.018,97.754,102.966,98.136,102.861,98.511L102.861,98.511z"/>
			<path fill="#333333" stroke="#333333" d="M115.709,100.449h-4.285c-0.289,0-0.523-0.235-0.523-0.524V92.03
				c0-0.29-0.235-0.524-0.524-0.524h-2.182c-0.29,0-0.524,0.235-0.524,0.524v10.71c0,0.289,0.235,0.524,0.524,0.524h7.514
				c0.29,0,0.524-0.235,0.524-0.524v-1.768C116.233,100.683,115.999,100.449,115.709,100.449L115.709,100.449z"/>
			<path fill="#333333" stroke="#333333" d="M120.065,91.506h-2.182c-0.289,0-0.524,0.234-0.524,0.523v10.711
				c0,0.289,0.235,0.524,0.524,0.524h2.182c0.29,0,0.523-0.235,0.523-0.524V92.029C120.588,91.74,120.354,91.506,120.065,91.506z"/>
			<path fill="#333333" stroke="#333333" d="M132.489,100.379l-1.736-1.038c-0.239-0.142-0.546-0.072-0.701,0.159
				c-0.055,0.082-0.115,0.158-0.181,0.228c-0.17,0.183-0.364,0.332-0.58,0.447c-0.215,0.116-0.438,0.199-0.67,0.249
				c-0.232,0.05-0.458,0.075-0.679,0.075c-0.42,0-0.797-0.085-1.134-0.257c-0.337-0.171-0.621-0.4-0.853-0.688
				c-0.231-0.287-0.408-0.618-0.529-0.994c-0.122-0.375-0.183-0.767-0.183-1.176c0-0.365,0.052-0.731,0.157-1.102
				c0.104-0.37,0.265-0.701,0.48-0.994c0.215-0.292,0.491-0.53,0.828-0.712c0.336-0.182,0.737-0.273,1.201-0.273
				c0.221,0,0.45,0.023,0.688,0.067c0.237,0.044,0.466,0.121,0.688,0.232c0.22,0.11,0.422,0.259,0.604,0.447
				c0.069,0.071,0.133,0.149,0.191,0.235c0.166,0.241,0.495,0.301,0.733,0.131l1.583-1.126c0.233-0.166,0.294-0.489,0.132-0.724
				c-0.396-0.572-0.928-1.047-1.596-1.423c-0.834-0.469-1.819-0.704-2.957-0.704c-0.95,0-1.794,0.171-2.533,0.513
				c-0.74,0.342-1.37,0.79-1.888,1.341c-0.52,0.552-0.914,1.176-1.184,1.872c-0.271,0.695-0.406,1.402-0.406,2.12
				c0,0.75,0.144,1.491,0.431,2.219c0.288,0.728,0.692,1.38,1.217,1.954c0.524,0.574,1.149,1.035,1.872,1.383
				c0.723,0.348,1.521,0.521,2.393,0.521c0.497,0,1.007-0.061,1.532-0.182c0.524-0.122,1.016-0.299,1.474-0.53
				s0.867-0.519,1.226-0.861c0.226-0.216,0.416-0.449,0.57-0.7C132.826,100.847,132.733,100.526,132.489,100.379L132.489,100.379z"
				/>
			<path fill="#333333" stroke="#333333" d="M141.908,100.449h-4.103c-0.29,0-0.524-0.235-0.524-0.524v-0.807
				c0-0.29,0.235-0.524,0.524-0.524h3.225c0.289,0,0.524-0.235,0.524-0.524V96.5c0-0.289-0.235-0.523-0.524-0.523h-3.225
				c-0.29,0-0.524-0.235-0.524-0.524v-0.608c0-0.29,0.235-0.524,0.524-0.524h3.954c0.289,0,0.523-0.234,0.523-0.524v-1.768
				c0-0.289-0.234-0.524-0.523-0.524h-7.184c-0.289,0-0.523,0.235-0.523,0.524v10.711c0,0.289,0.234,0.524,0.523,0.524h7.333
				c0.289,0,0.524-0.235,0.524-0.524v-1.768C142.432,100.683,142.197,100.449,141.908,100.449L141.908,100.449z"/>
		</g>
	</g>
</g>
<rect x="36" y="201.667" fill="none" width="154.341" height="55.001"/>
<text transform="matrix(1 0 0 1 43.0669 219.5674)" fill="#333333" font-family="'Tahoma'" font-size="27">Local Police </text>
<text transform="matrix(1 0 0 1 41.4419 251.9678)" fill="#333333" font-family="'Tahoma'" font-size="27">Department</text>
<g>
	<circle fill="#BBBBBB" cx="400.668" cy="100.693" r="77.473"/>
	<g>
		<path id="path13" fill="#333333" stroke="#333333" stroke-width="3.129" d="M400.694,159.727c32.651,0,59.121-26.47,59.121-59.124
			c0-32.652-26.47-59.123-59.121-59.123c-32.653,0-59.126,26.47-59.126,59.123C341.568,133.257,368.041,159.727,400.694,159.727z"/>
		<g>
			<path id="path15" fill="none" stroke="#333333" stroke-width="3.1289" d="M401.848,145.471c24.777,0,44.863-20.088,44.863-44.867
				c0-24.781-20.086-44.875-44.863-44.875c-24.788,0-44.87,20.093-44.87,44.875C356.978,125.383,377.06,145.471,401.848,145.471"/>
			<g>
				<g id="g77">
					<path id="path79" fill="#BBBBBB" d="M377.291,146.402c-0.414-0.334-0.68-0.668-0.799-1.002
						c-0.167-0.465-0.138-0.916,0.085-1.354c0.168-0.332,0.436-0.597,0.801-0.794c0.364-0.196,0.766-0.272,1.203-0.226
						c0.438,0.047,1.033,0.262,1.786,0.645l3.155,1.604l-0.092,0.184l-0.251-0.128c-0.279-0.144-0.525-0.156-0.738-0.041
						c-0.133,0.077-0.295,0.303-0.486,0.677l-2.196,4.32c-0.21,0.415-0.295,0.699-0.256,0.857c0.055,0.209,0.209,0.379,0.462,0.508
						l0.251,0.127l-0.092,0.184l-2.89-1.47c-0.538-0.274-0.951-0.533-1.236-0.777c-0.434-0.37-0.703-0.771-0.81-1.202
						c-0.106-0.434-0.061-0.846,0.138-1.236c0.172-0.336,0.425-0.584,0.765-0.744C376.427,146.372,376.828,146.328,377.291,146.402z
						 M379.739,147.982c-0.109-0.084-0.239-0.172-0.39-0.264c-0.151-0.091-0.32-0.184-0.507-0.279
						c-0.479-0.244-0.867-0.375-1.16-0.395c-0.294-0.02-0.561,0.045-0.797,0.193c-0.237,0.148-0.42,0.351-0.548,0.604
						c-0.199,0.391-0.21,0.807-0.031,1.245c0.178,0.438,0.574,0.813,1.185,1.124c0.329,0.167,0.644,0.281,0.943,0.343
						L379.739,147.982z M381.363,144.788c-0.336-0.283-0.69-0.519-1.061-0.708c-0.595-0.303-1.117-0.4-1.566-0.29
						c-0.448,0.108-0.772,0.36-0.973,0.755c-0.131,0.26-0.188,0.546-0.169,0.857c0.02,0.312,0.153,0.617,0.402,0.918
						c0.248,0.3,0.608,0.568,1.079,0.809c0.204,0.104,0.379,0.189,0.527,0.256c0.148,0.067,0.271,0.115,0.367,0.145L381.363,144.788
						z"/>
				</g>
				<g id="g85">
					<path id="path87" fill="#BBBBBB" d="M368.538,144.85l-0.12,0.166l-2.15-1.56l0.121-0.166l0.228,0.166
						c0.24,0.173,0.495,0.207,0.769,0.101c0.13-0.048,0.317-0.24,0.562-0.578l1.787-2.463c0.441-0.608,0.844-1.037,1.208-1.285
						c0.364-0.248,0.811-0.363,1.338-0.348c0.528,0.016,1.097,0.245,1.707,0.688c0.662,0.48,1.081,0.961,1.258,1.438
						c0.176,0.479,0.195,0.964,0.058,1.456c-0.098,0.335-0.412,0.869-0.942,1.6l-1.721,2.375c-0.271,0.373-0.397,0.654-0.378,0.846
						s0.143,0.369,0.373,0.537l0.228,0.166l-0.12,0.166l-2.624-1.903l0.12-0.166l0.233,0.168c0.251,0.183,0.488,0.233,0.709,0.153
						c0.154-0.053,0.353-0.25,0.6-0.59l1.919-2.646c0.172-0.236,0.345-0.521,0.523-0.857c0.177-0.336,0.271-0.631,0.282-0.883
						c0.01-0.252-0.052-0.511-0.185-0.777c-0.133-0.264-0.355-0.51-0.666-0.734c-0.396-0.289-0.815-0.459-1.254-0.514
						c-0.438-0.055-0.813,0.012-1.124,0.199c-0.312,0.187-0.702,0.603-1.169,1.248l-1.782,2.457
						c-0.276,0.379-0.406,0.646-0.391,0.803c0.021,0.217,0.146,0.408,0.376,0.574L368.538,144.85z"/>
				</g>
				<g id="g93">
					<path id="path95" fill="#BBBBBB" d="M365.201,131.86l1.408,1.423l-0.705,4.271c0.138,0.129,0.248,0.235,0.331,0.318
						c0.033,0.034,0.07,0.072,0.107,0.111c0.038,0.041,0.075,0.084,0.114,0.129l1.549-1.534c0.335-0.332,0.508-0.575,0.516-0.729
						c0.017-0.214-0.073-0.42-0.27-0.619l-0.208-0.209l0.146-0.144l2.261,2.283l-0.145,0.146l-0.199-0.201
						c-0.223-0.227-0.457-0.314-0.699-0.267c-0.135,0.025-0.355,0.188-0.66,0.49l-3.443,3.41c-0.335,0.332-0.507,0.575-0.516,0.729
						c-0.014,0.216,0.079,0.425,0.278,0.628l0.199,0.2l-0.145,0.146l-1.923-1.942c-0.561-0.565-0.933-1.024-1.116-1.374
						c-0.183-0.352-0.257-0.729-0.221-1.135c0.037-0.407,0.208-0.762,0.514-1.066c0.329-0.324,0.718-0.5,1.171-0.523
						c0.453-0.025,0.951,0.137,1.493,0.486l0.439-2.615c0.104-0.6,0.121-1.047,0.057-1.342s-0.224-0.603-0.48-0.925L365.201,131.86z
						 M366.209,138.357c-0.049-0.049-0.091-0.094-0.126-0.131c-0.035-0.039-0.063-0.069-0.087-0.093
						c-0.504-0.509-0.994-0.782-1.47-0.823c-0.475-0.041-0.883,0.108-1.224,0.446c-0.333,0.33-0.5,0.701-0.501,1.116
						c-0.003,0.415,0.167,0.793,0.506,1.137c0.15,0.152,0.379,0.333,0.686,0.543L366.209,138.357z"/>
				</g>
				<g id="g101">
					<path id="path103" fill="#BBBBBB" d="M358.155,134.154l2.396-1.747l-0.972-1.332c-0.251-0.346-0.473-0.538-0.662-0.579
						c-0.25-0.055-0.554,0.034-0.913,0.269l-0.121-0.166l2.109-1.539l0.12,0.165c-0.263,0.257-0.422,0.437-0.476,0.539
						c-0.065,0.13-0.083,0.278-0.054,0.443c0.03,0.166,0.137,0.375,0.322,0.628l0.971,1.332l1.998-1.457
						c0.267-0.196,0.422-0.327,0.463-0.393c0.041-0.067,0.056-0.142,0.047-0.227c-0.01-0.084-0.075-0.21-0.198-0.377l-0.749-1.027
						c-0.25-0.343-0.455-0.574-0.616-0.694c-0.16-0.12-0.363-0.201-0.607-0.242c-0.32-0.05-0.737-0.036-1.25,0.042l-0.131-0.179
						l1.901-0.586l3.408,4.67l-0.166,0.121l-0.156-0.214c-0.105-0.143-0.237-0.254-0.399-0.332
						c-0.118-0.061-0.236-0.073-0.357-0.038c-0.12,0.035-0.328,0.161-0.623,0.376l-3.936,2.873
						c-0.384,0.281-0.593,0.492-0.626,0.635c-0.04,0.193,0.03,0.416,0.212,0.667l0.157,0.214l-0.166,0.121l-3.408-4.67l1.278-1.036
						l0.127,0.175c-0.273,0.294-0.441,0.524-0.505,0.687c-0.063,0.163-0.073,0.342-0.027,0.536c0.042,0.152,0.173,0.378,0.393,0.679
						L358.155,134.154z"/>
				</g>
				<g id="g109">
					<path id="path111" fill="#BBBBBB" d="M356.543,122.82l1.322,2.585l1.286-0.086c0.317-0.021,0.54-0.064,0.667-0.13
						c0.101-0.052,0.165-0.146,0.193-0.283c0.028-0.136-0.029-0.371-0.171-0.705l0.183-0.093l1.075,2.103l-0.182,0.094
						c-0.192-0.254-0.349-0.402-0.469-0.444c-0.243-0.086-0.659-0.108-1.245-0.065l-6.698,0.462l-0.088-0.172l4.365-5.166
						c0.352-0.416,0.555-0.734,0.609-0.955c0.055-0.22,0.021-0.472-0.102-0.752l0.183-0.093l1.348,2.635l-0.184,0.093
						c-0.148-0.259-0.285-0.417-0.408-0.472c-0.124-0.054-0.24-0.054-0.348,0.001c-0.144,0.074-0.338,0.256-0.583,0.547
						L356.543,122.82z M356.25,123.145l-2.119,2.513l3.293-0.218L356.25,123.145z"/>
				</g>
				<g id="g117">
					<path id="path119" fill="#BBBBBB" d="M348.903,116.251l-0.194,0.062l-0.8-2.531l0.194-0.062l0.086,0.269
						c0.088,0.282,0.275,0.46,0.559,0.537c0.132,0.04,0.396-0.003,0.794-0.129l2.9-0.916c0.718-0.227,1.298-0.332,1.737-0.314
						c0.441,0.018,0.869,0.189,1.284,0.517c0.415,0.327,0.734,0.85,0.961,1.566c0.247,0.781,0.298,1.417,0.156,1.906
						c-0.142,0.49-0.416,0.892-0.82,1.205c-0.277,0.211-0.848,0.454-1.708,0.726l-2.796,0.884c-0.438,0.139-0.708,0.291-0.807,0.456
						c-0.099,0.164-0.105,0.382-0.019,0.653l0.083,0.269l-0.194,0.062l-0.977-3.091l0.194-0.062l0.087,0.274
						c0.093,0.295,0.253,0.477,0.48,0.544c0.154,0.048,0.432,0.009,0.833-0.118l3.116-0.985c0.278-0.088,0.589-0.214,0.932-0.378
						c0.342-0.164,0.593-0.345,0.75-0.542c0.159-0.196,0.263-0.441,0.313-0.733c0.051-0.293,0.019-0.622-0.096-0.987
						c-0.148-0.468-0.382-0.854-0.704-1.159c-0.32-0.304-0.662-0.474-1.023-0.509c-0.361-0.035-0.921,0.068-1.68,0.308l-2.896,0.915
						c-0.447,0.141-0.71,0.279-0.792,0.413c-0.112,0.186-0.125,0.415-0.039,0.685L348.903,116.251z"/>
				</g>
				<g id="g125">
					<path id="path127" fill="#BBBBBB" d="M346.515,104.938c-0.072-0.971,0.234-1.839,0.918-2.606
						c0.685-0.766,1.579-1.19,2.682-1.272c1.137-0.084,2.106,0.205,2.91,0.866c0.803,0.662,1.243,1.501,1.318,2.521
						c0.076,1.03-0.226,1.922-0.904,2.677c-0.681,0.755-1.602,1.175-2.764,1.261c-1.187,0.088-2.187-0.244-2.997-0.998
						C346.974,106.733,346.586,105.917,346.515,104.938z M346.926,105.014c0.048,0.669,0.336,1.188,0.864,1.556
						c0.655,0.458,1.578,0.643,2.77,0.555c1.221-0.091,2.142-0.421,2.761-0.992c0.47-0.438,0.682-0.986,0.634-1.645
						c-0.053-0.702-0.371-1.263-0.952-1.679c-0.581-0.417-1.463-0.583-2.644-0.495c-1.279,0.094-2.216,0.417-2.807,0.968
						C347.081,103.723,346.872,104.3,346.926,105.014z"/>
				</g>
				<g id="g133">
					<path id="path135" fill="#BBBBBB" d="M347.026,97.686l2.941,0.209l0.097-1.363c0.023-0.313-0.03-0.546-0.158-0.701
						c-0.127-0.155-0.393-0.271-0.798-0.348l0.014-0.204l2.533,0.18l-0.014,0.204c-0.291-0.017-0.507,0.005-0.648,0.068
						c-0.143,0.062-0.251,0.154-0.329,0.276c-0.076,0.123-0.125,0.309-0.142,0.559l-0.097,1.363l2.35,0.167
						c0.379,0.027,0.631,0.021,0.756-0.018c0.094-0.03,0.178-0.102,0.253-0.215c0.1-0.156,0.156-0.322,0.169-0.498l0.019-0.271
						l0.204,0.014l-0.229,3.211l-0.204-0.015l0.019-0.265c0.021-0.309-0.052-0.54-0.223-0.692c-0.111-0.097-0.391-0.161-0.84-0.193
						l-4.833-0.343c-0.379-0.027-0.632-0.021-0.756,0.019c-0.095,0.03-0.18,0.1-0.253,0.209c-0.099,0.152-0.155,0.318-0.168,0.499
						l-0.019,0.265l-0.204-0.015l0.395-5.567l1.65,0.044l-0.014,0.193c-0.356,0.071-0.621,0.164-0.794,0.279
						c-0.172,0.115-0.302,0.263-0.389,0.444c-0.087,0.18-0.144,0.465-0.172,0.855L347.026,97.686z"/>
				</g>
				<g id="g141">
					<path id="path143" fill="#BBBBBB" d="M353.589,86.425l-0.765,2.801l1.008,0.803c0.248,0.197,0.441,0.315,0.58,0.353
						c0.109,0.03,0.221,0.004,0.333-0.078c0.113-0.082,0.229-0.294,0.349-0.636l0.197,0.055l-0.622,2.278l-0.197-0.054
						c0.029-0.317,0.013-0.532-0.048-0.645c-0.121-0.229-0.413-0.524-0.876-0.887l-5.258-4.172l0.05-0.187l6.707-0.875
						c0.541-0.07,0.904-0.169,1.094-0.295c0.189-0.126,0.333-0.334,0.431-0.625l0.198,0.054l-0.78,2.855l-0.197-0.054
						c0.065-0.292,0.071-0.5,0.015-0.624c-0.054-0.124-0.138-0.202-0.255-0.233c-0.157-0.043-0.424-0.039-0.8,0.01L353.589,86.425z
						 M353.153,86.466l-3.259,0.429l2.58,2.058L353.153,86.466z"/>
				</g>
				<g id="g149">
					<path id="path151" fill="#BBBBBB" d="M358.03,76.721l0.113-0.149l1.566,1.449l-2.479,5.252l-0.185-0.087l0.121-0.255
						c0.135-0.287,0.138-0.536,0.011-0.748c-0.074-0.121-0.304-0.272-0.692-0.455l-4.376-2.066c-0.423-0.2-0.711-0.278-0.861-0.235
						c-0.208,0.061-0.373,0.22-0.494,0.476l-0.121,0.255l-0.186-0.087l1.45-3.072l0.186,0.087c-0.174,0.359-0.26,0.627-0.258,0.805
						c0.001,0.178,0.043,0.319,0.125,0.423c0.081,0.104,0.324,0.25,0.728,0.441l4.262,2.012c0.276,0.131,0.478,0.194,0.607,0.189
						c0.089-0.007,0.17-0.044,0.243-0.112c0.073-0.068,0.212-0.32,0.419-0.757l0.233-0.495c0.246-0.52,0.38-0.904,0.402-1.149
						c0.022-0.247-0.021-0.503-0.135-0.768C358.594,77.411,358.367,77.092,358.03,76.721z"/>
				</g>
				<g id="g157">
					<path id="path159" fill="#BBBBBB" d="M357.684,67.022l2.206,1.292l-0.097,0.142c-0.761-0.24-1.397-0.279-1.913-0.117
						c-0.517,0.162-0.941,0.488-1.275,0.98c-0.28,0.412-0.429,0.854-0.446,1.329c-0.016,0.474,0.139,0.962,0.466,1.464
						c0.328,0.501,0.833,0.983,1.513,1.446c0.561,0.381,1.108,0.622,1.642,0.722c0.534,0.101,1.034,0.044,1.5-0.168
						c0.465-0.212,0.855-0.549,1.169-1.014c0.274-0.403,0.43-0.816,0.466-1.242c0.036-0.426-0.075-0.996-0.337-1.713l0.189-0.08
						c0.339,0.687,0.497,1.324,0.471,1.913c-0.025,0.589-0.233,1.169-0.621,1.739c-0.698,1.027-1.621,1.564-2.766,1.61
						c-0.854,0.036-1.665-0.208-2.433-0.731c-0.62-0.42-1.095-0.946-1.424-1.576c-0.33-0.63-0.472-1.285-0.426-1.966
						c0.045-0.68,0.265-1.309,0.657-1.885c0.305-0.448,0.714-0.815,1.23-1.103c0.154-0.082,0.25-0.151,0.287-0.206
						c0.057-0.083,0.076-0.174,0.06-0.274c-0.028-0.135-0.104-0.27-0.228-0.402L357.684,67.022z"/>
				</g>
				<g id="g165">
					<path id="path167" fill="#BBBBBB" d="M361.711,62.426c0.67-0.706,1.521-1.063,2.548-1.07c1.027-0.009,1.942,0.369,2.745,1.131
						c0.826,0.785,1.264,1.696,1.314,2.736c0.05,1.04-0.277,1.929-0.981,2.67c-0.711,0.749-1.575,1.125-2.59,1.128
						c-1.016,0.004-1.946-0.395-2.791-1.198c-0.864-0.821-1.289-1.784-1.276-2.89C360.692,63.973,361.036,63.137,361.711,62.426z
						 M361.933,62.78c-0.462,0.487-0.653,1.049-0.571,1.686c0.101,0.793,0.585,1.601,1.451,2.424
						c0.887,0.843,1.751,1.303,2.59,1.377c0.64,0.054,1.188-0.158,1.643-0.637c0.485-0.51,0.688-1.122,0.605-1.833
						c-0.082-0.711-0.552-1.475-1.411-2.29c-0.93-0.884-1.798-1.36-2.603-1.428C362.993,62.028,362.425,62.262,361.933,62.78z"/>
				</g>
				<g id="g173">
					<path id="path175" fill="#BBBBBB" d="M369.297,60.335l2.78-2.102l-1.293-1.712c-0.232-0.306-0.403-0.494-0.515-0.561
						c-0.086-0.052-0.195-0.068-0.33-0.05c-0.179,0.025-0.339,0.091-0.481,0.198l-0.211,0.16l-0.125-0.163l2.56-1.936l0.124,0.164
						l-0.211,0.161c-0.142,0.106-0.249,0.241-0.324,0.404c-0.059,0.118-0.07,0.238-0.031,0.359c0.039,0.121,0.169,0.329,0.392,0.623
						l2.919,3.861c0.229,0.303,0.399,0.489,0.51,0.557c0.085,0.051,0.193,0.069,0.325,0.053c0.183-0.027,0.345-0.094,0.486-0.201
						l0.211-0.16l0.125,0.163l-2.559,1.936l-0.125-0.164l0.213-0.16c0.244-0.185,0.366-0.391,0.371-0.62
						c0.002-0.149-0.133-0.404-0.404-0.763l-1.378-1.822l-2.78,2.102l1.378,1.822c0.229,0.304,0.399,0.489,0.51,0.557
						c0.086,0.051,0.194,0.068,0.33,0.049c0.18-0.025,0.341-0.091,0.482-0.198l0.216-0.163l0.123,0.163l-2.563,1.938l-0.124-0.163
						l0.213-0.16c0.246-0.187,0.372-0.395,0.375-0.623c-0.001-0.147-0.137-0.401-0.408-0.76l-2.919-3.861
						c-0.232-0.306-0.403-0.493-0.515-0.561c-0.085-0.051-0.193-0.069-0.324-0.053c-0.183,0.027-0.345,0.095-0.486,0.202
						l-0.211,0.16l-0.124-0.164l2.563-1.939l0.124,0.164l-0.216,0.163c-0.142,0.107-0.25,0.242-0.326,0.405
						c-0.055,0.116-0.064,0.235-0.027,0.357c0.037,0.123,0.167,0.331,0.389,0.625L369.297,60.335z"/>
				</g>
				<g id="g181">
					<path id="path183" fill="#BBBBBB" d="M376.303,51.425c0.862-0.452,1.782-0.516,2.756-0.192c0.974,0.324,1.72,0.976,2.233,1.956
						c0.528,1.01,0.647,2.015,0.361,3.014c-0.288,1-0.885,1.737-1.79,2.211c-0.916,0.479-1.854,0.557-2.817,0.233
						c-0.962-0.325-1.714-1.003-2.256-2.035c-0.551-1.055-0.644-2.104-0.274-3.147C374.838,52.561,375.434,51.88,376.303,51.425z
						 M376.397,51.832c-0.594,0.312-0.956,0.781-1.084,1.411c-0.16,0.783,0.037,1.704,0.591,2.762
						c0.568,1.085,1.237,1.798,2.008,2.14c0.588,0.258,1.175,0.234,1.76-0.073c0.624-0.327,1.012-0.84,1.165-1.54
						c0.151-0.7-0.047-1.574-0.596-2.623c-0.596-1.137-1.265-1.867-2.003-2.191C377.643,51.462,377.031,51.5,376.397,51.832z"/>
				</g>
				<g id="g189">
					<path id="path191" fill="#BBBBBB" d="M388.723,52.422l0.185-0.022l0.051,2.134l-5.496,1.879l-0.067-0.193l0.268-0.091
						c0.301-0.103,0.481-0.274,0.543-0.514c0.036-0.136-0.016-0.407-0.155-0.813l-1.566-4.58c-0.151-0.443-0.295-0.704-0.431-0.782
						c-0.189-0.107-0.418-0.115-0.686-0.023l-0.269,0.091l-0.065-0.193l3.214-1.099l0.067,0.194
						c-0.378,0.125-0.631,0.25-0.757,0.375c-0.127,0.125-0.199,0.253-0.217,0.384s0.045,0.408,0.19,0.83l1.524,4.459
						c0.1,0.29,0.195,0.479,0.289,0.568c0.065,0.059,0.149,0.091,0.248,0.096c0.099,0.005,0.378-0.071,0.835-0.228l0.519-0.177
						c0.544-0.186,0.912-0.356,1.105-0.512c0.191-0.155,0.344-0.366,0.456-0.632C388.619,53.308,388.69,52.924,388.723,52.422z"/>
				</g>
				<g id="g197">
					<path id="path199" fill="#BBBBBB" d="M390.88,56.037l-0.055-0.237c0.342-0.208,0.584-0.464,0.729-0.767
						c0.144-0.304,0.183-0.6,0.117-0.887c-0.016-0.068-0.045-0.123-0.089-0.162c-0.032-0.026-0.061-0.037-0.086-0.031
						c-0.04,0.009-0.117,0.064-0.234,0.167c-0.057,0.048-0.122,0.08-0.193,0.096c-0.177,0.041-0.329,0.021-0.457-0.06
						c-0.129-0.08-0.214-0.212-0.256-0.396c-0.041-0.176-0.009-0.342,0.098-0.5c0.105-0.157,0.256-0.257,0.449-0.302
						c0.237-0.054,0.473,0,0.706,0.165c0.232,0.164,0.388,0.417,0.466,0.758c0.086,0.37,0.037,0.744-0.147,1.121
						C391.743,55.381,391.394,55.726,390.88,56.037z"/>
				</g>
				<g id="g205">
					<path id="path207" fill="#BBBBBB" d="M401.275,45.212l0.205,1.75l-0.211,0.015c-0.062-0.307-0.132-0.523-0.21-0.651
						c-0.13-0.206-0.292-0.352-0.488-0.44c-0.195-0.088-0.45-0.122-0.759-0.1l-1.054,0.073l0.396,5.717
						c0.031,0.46,0.102,0.743,0.208,0.851c0.149,0.146,0.371,0.208,0.663,0.188l0.259-0.018l0.014,0.204l-3.173,0.22l-0.014-0.204
						l0.265-0.019c0.316-0.022,0.534-0.133,0.652-0.333c0.072-0.124,0.095-0.395,0.065-0.814l-0.396-5.718l-0.899,0.063
						c-0.35,0.024-0.597,0.067-0.74,0.129c-0.187,0.083-0.341,0.229-0.463,0.437c-0.123,0.208-0.185,0.482-0.187,0.822l-0.21,0.015
						l-0.032-1.761L401.275,45.212z"/>
				</g>
				<g id="g213">
					<path id="path215" fill="#BBBBBB" d="M406.522,45.292c0.97,0.077,1.782,0.511,2.437,1.304c0.653,0.793,0.938,1.741,0.85,2.844
						c-0.088,1.136-0.521,2.05-1.297,2.745c-0.775,0.694-1.674,1.001-2.69,0.921c-1.028-0.081-1.865-0.515-2.508-1.301
						c-0.644-0.787-0.921-1.761-0.828-2.923c0.092-1.187,0.571-2.125,1.44-2.812C404.678,45.475,405.545,45.216,406.522,45.292z
						 M406.387,45.687c-0.67-0.053-1.227,0.153-1.67,0.618c-0.551,0.579-0.875,1.463-0.968,2.654
						c-0.096,1.221,0.091,2.181,0.562,2.879c0.362,0.532,0.871,0.823,1.529,0.875c0.702,0.055,1.304-0.173,1.804-0.686
						c0.503-0.512,0.8-1.357,0.892-2.538c0.101-1.279-0.076-2.253-0.53-2.921C407.639,46.037,407.099,45.743,406.387,45.687z"/>
				</g>
				<g id="g221">
					<path id="path223" fill="#BBBBBB" d="M415.56,50.723c0.48,0.229,0.818,0.491,1.015,0.788c0.269,0.413,0.346,0.858,0.23,1.335
						c-0.086,0.362-0.282,0.682-0.592,0.958c-0.31,0.277-0.682,0.444-1.117,0.501c-0.438,0.057-1.064-0.013-1.888-0.208
						l-3.443-0.823l0.048-0.199l0.274,0.066c0.305,0.073,0.547,0.028,0.726-0.134c0.112-0.106,0.219-0.363,0.315-0.772l1.124-4.713
						c0.108-0.452,0.125-0.75,0.049-0.893c-0.103-0.191-0.291-0.319-0.566-0.386l-0.275-0.065l0.049-0.199l3.152,0.753
						c0.588,0.14,1.05,0.296,1.384,0.467c0.509,0.257,0.864,0.584,1.069,0.98c0.204,0.396,0.257,0.807,0.153,1.234
						c-0.088,0.366-0.276,0.667-0.567,0.902C416.407,50.55,416.028,50.687,415.56,50.723z M411.979,53.246
						c0.394,0.196,0.794,0.343,1.197,0.439c0.649,0.155,1.18,0.127,1.59-0.084c0.409-0.211,0.667-0.532,0.771-0.962
						c0.066-0.284,0.056-0.575-0.035-0.873c-0.093-0.299-0.295-0.564-0.607-0.799c-0.312-0.234-0.724-0.412-1.235-0.534
						c-0.224-0.053-0.413-0.095-0.572-0.125c-0.16-0.031-0.29-0.048-0.392-0.054L411.979,53.246z M412.811,49.76
						c0.128,0.057,0.273,0.111,0.441,0.165c0.167,0.053,0.354,0.104,0.558,0.153c0.523,0.125,0.933,0.163,1.223,0.112
						c0.29-0.05,0.533-0.175,0.729-0.375c0.194-0.2,0.325-0.438,0.392-0.713c0.103-0.427,0.016-0.833-0.261-1.217
						c-0.275-0.384-0.747-0.656-1.415-0.815c-0.357-0.085-0.69-0.123-0.995-0.113L412.811,49.76z"/>
				</g>
				<g id="g229">
					<path id="path231" fill="#BBBBBB" d="M422.647,54.635l-2.678-1.125l-0.929,0.896c-0.229,0.22-0.37,0.396-0.426,0.529
						c-0.044,0.105-0.033,0.219,0.034,0.341c0.065,0.122,0.261,0.265,0.584,0.429l-0.079,0.188l-2.179-0.915l0.08-0.189
						c0.312,0.071,0.525,0.083,0.646,0.037c0.241-0.09,0.573-0.341,0.994-0.752l4.822-4.669l0.18,0.075l-0.011,6.764
						c0,0.544,0.051,0.918,0.149,1.122c0.101,0.204,0.288,0.374,0.563,0.509l-0.077,0.189l-2.729-1.146l0.08-0.189
						c0.28,0.102,0.486,0.134,0.616,0.097c0.129-0.038,0.218-0.112,0.266-0.224c0.063-0.149,0.094-0.414,0.094-0.794V54.635z
						 M422.664,54.198l0.001-3.288l-2.379,2.289L422.664,54.198z"/>
				</g>
				<g id="g237">
					<path id="path239" fill="#BBBBBB" d="M433.99,55.063l-1.199,2.257l-0.145-0.09c0.206-0.769,0.22-1.408,0.036-1.917
						c-0.184-0.509-0.527-0.92-1.031-1.232c-0.424-0.263-0.872-0.393-1.347-0.39s-0.956,0.178-1.442,0.526
						c-0.488,0.349-0.949,0.873-1.384,1.571c-0.355,0.576-0.574,1.134-0.651,1.671c-0.078,0.538-0.001,1.035,0.229,1.491
						c0.231,0.456,0.585,0.832,1.062,1.127c0.414,0.256,0.834,0.395,1.26,0.414c0.427,0.02,0.992-0.116,1.699-0.408l0.088,0.185
						c-0.673,0.369-1.303,0.553-1.893,0.551c-0.591-0.001-1.179-0.184-1.764-0.547c-1.057-0.655-1.631-1.554-1.725-2.697
						c-0.07-0.851,0.139-1.672,0.629-2.461c0.395-0.636,0.898-1.132,1.516-1.488c0.615-0.356,1.265-0.525,1.945-0.508
						c0.682,0.018,1.319,0.209,1.911,0.577c0.461,0.286,0.845,0.681,1.153,1.184c0.088,0.15,0.16,0.244,0.218,0.278
						c0.084,0.053,0.177,0.068,0.275,0.048c0.135-0.034,0.266-0.115,0.395-0.245L433.99,55.063z"/>
				</g>
				<g id="g245">
					<path id="path247" fill="#BBBBBB" d="M440.733,60.613l-1.536,2.042l-0.13-0.112c0.325-0.727,0.438-1.356,0.335-1.888
						c-0.104-0.532-0.377-0.991-0.826-1.378c-0.377-0.325-0.801-0.523-1.271-0.595c-0.47-0.071-0.973,0.027-1.509,0.295
						c-0.536,0.269-1.072,0.714-1.609,1.337c-0.442,0.514-0.744,1.03-0.904,1.549s-0.162,1.022-0.004,1.509
						c0.155,0.486,0.446,0.912,0.873,1.279c0.367,0.318,0.762,0.52,1.18,0.605s0.998,0.04,1.74-0.138l0.058,0.195
						c-0.721,0.26-1.371,0.343-1.954,0.25c-0.582-0.093-1.134-0.365-1.656-0.816c-0.939-0.812-1.367-1.789-1.281-2.933
						c0.063-0.852,0.396-1.63,1.004-2.333c0.488-0.567,1.063-0.978,1.729-1.233s1.332-0.321,2.003-0.199
						c0.67,0.124,1.271,0.412,1.797,0.868c0.41,0.354,0.729,0.804,0.955,1.349c0.063,0.163,0.121,0.266,0.172,0.309
						c0.075,0.065,0.163,0.095,0.266,0.09c0.138-0.013,0.281-0.073,0.427-0.18L440.733,60.613z"/>
				</g>
				<g id="g253">
					<path id="path255" fill="#BBBBBB" d="M444.854,65.16c0.627,0.747,0.883,1.632,0.772,2.653c-0.11,1.022-0.589,1.887-1.438,2.597
						c-0.874,0.731-1.83,1.062-2.869,0.993c-1.038-0.069-1.886-0.496-2.54-1.28c-0.662-0.792-0.938-1.693-0.825-2.703
						c0.113-1.01,0.615-1.888,1.51-2.636c0.915-0.764,1.92-1.076,3.018-0.936C443.435,63.97,444.226,64.407,444.854,65.16z
						 M444.478,65.338c-0.43-0.515-0.967-0.768-1.608-0.76c-0.799,0.01-1.657,0.397-2.573,1.164
						c-0.939,0.785-1.495,1.59-1.665,2.415c-0.128,0.63,0.021,1.199,0.444,1.705c0.451,0.54,1.036,0.811,1.751,0.811
						c0.717,0,1.529-0.38,2.438-1.139c0.984-0.824,1.557-1.631,1.717-2.423C445.104,66.479,444.938,65.888,444.478,65.338z"/>
				</g>
				<g id="g261">
					<path id="path263" fill="#BBBBBB" d="M447.425,78.491l-1.341-2.576l-1.286,0.095c-0.314,0.023-0.538,0.068-0.665,0.134
						c-0.102,0.053-0.165,0.147-0.191,0.284c-0.026,0.137,0.031,0.371,0.177,0.704l-0.184,0.094l-1.09-2.095l0.183-0.095
						c0.192,0.253,0.351,0.4,0.472,0.44c0.244,0.085,0.659,0.104,1.246,0.057l6.692-0.509l0.092,0.172l-4.331,5.196
						c-0.349,0.418-0.548,0.738-0.603,0.959c-0.052,0.221-0.018,0.471,0.107,0.751l-0.182,0.094l-1.366-2.625l0.182-0.095
						c0.15,0.258,0.289,0.415,0.413,0.469c0.123,0.054,0.239,0.053,0.347-0.003c0.145-0.075,0.337-0.259,0.58-0.551L447.425,78.491z
						 M447.716,78.166l2.103-2.528l-3.291,0.241L447.716,78.166z"/>
				</g>
				<g id="g269">
					<path id="path271" fill="#BBBBBB" d="M453.844,80.274l0.604,1.944l-4.013,6.048l4.132-1.283
						c0.439-0.136,0.699-0.271,0.777-0.404c0.107-0.176,0.117-0.405,0.03-0.687l-0.078-0.248l0.196-0.061l0.773,2.494l-0.194,0.06
						l-0.079-0.253c-0.095-0.303-0.252-0.489-0.476-0.559c-0.138-0.043-0.405-0.001-0.808,0.123l-6.038,1.875l-0.06-0.189
						l4.303-6.515l-4.412,1.37c-0.438,0.136-0.699,0.269-0.78,0.398c-0.104,0.18-0.114,0.409-0.028,0.687l0.079,0.253l-0.195,0.061
						l-0.774-2.494l0.195-0.061l0.077,0.248c0.095,0.307,0.254,0.495,0.476,0.564c0.139,0.042,0.406,0.002,0.81-0.123l4.98-1.547
						c0.179-0.283,0.289-0.49,0.333-0.623c0.045-0.131,0.068-0.312,0.07-0.54c0-0.112-0.032-0.272-0.097-0.479L453.844,80.274z"/>
				</g>
				<g id="g277">
					<path id="path279" fill="#BBBBBB" d="M449.107,90.335l0.201-0.028l0.039,0.279c0.044,0.314,0.176,0.523,0.395,0.627
						c0.132,0.064,0.407,0.067,0.827,0.009l4.8-0.663c0.465-0.064,0.748-0.156,0.851-0.274c0.142-0.164,0.192-0.387,0.154-0.668
						l-0.039-0.28l0.203-0.028l0.417,3.025c0.153,1.11,0.144,1.973-0.029,2.586c-0.172,0.614-0.526,1.137-1.065,1.571
						c-0.541,0.434-1.194,0.704-1.967,0.811c-1.032,0.143-1.94-0.053-2.723-0.585c-0.871-0.598-1.407-1.619-1.604-3.062
						L449.107,90.335z M449.938,92.382c-0.038,0.479-0.035,0.874,0.008,1.188c0.117,0.848,0.512,1.509,1.185,1.986
						c0.672,0.477,1.52,0.645,2.537,0.504c1.026-0.142,1.798-0.533,2.313-1.173c0.515-0.641,0.711-1.399,0.59-2.276
						c-0.045-0.329-0.149-0.695-0.313-1.102L449.938,92.382z"/>
				</g>
				<g id="g285">
					<path id="path287" fill="#BBBBBB" d="M457.106,103.9l-2.941-0.206l-0.096,1.362c-0.022,0.313,0.03,0.547,0.157,0.702
						c0.128,0.155,0.396,0.271,0.801,0.347l-0.016,0.205l-2.533-0.178l0.017-0.204c0.29,0.017,0.506-0.006,0.646-0.068
						c0.143-0.062,0.25-0.154,0.327-0.277c0.076-0.122,0.125-0.308,0.144-0.558l0.095-1.363l-2.352-0.165
						c-0.38-0.026-0.631-0.021-0.756,0.02c-0.095,0.03-0.179,0.102-0.253,0.215c-0.101,0.155-0.155,0.322-0.168,0.499l-0.02,0.27
						l-0.204-0.015l0.225-3.211l0.204,0.014l-0.019,0.264c-0.021,0.31,0.053,0.54,0.223,0.692c0.112,0.097,0.393,0.161,0.841,0.192
						l4.834,0.338c0.38,0.027,0.631,0.021,0.756-0.019c0.096-0.03,0.18-0.1,0.253-0.209c0.101-0.152,0.155-0.318,0.168-0.499
						l0.02-0.265l0.204,0.015l-0.392,5.567l-1.647-0.043l0.014-0.193c0.355-0.071,0.62-0.165,0.793-0.28
						c0.172-0.115,0.303-0.263,0.39-0.444c0.086-0.181,0.145-0.466,0.171-0.856L457.106,103.9z"/>
				</g>
				<g id="g293">
					<path id="path295" fill="#BBBBBB" d="M449.286,110.809l-0.202-0.035l0.557-3.165l0.201,0.035l-0.047,0.262
						c-0.054,0.305-0.003,0.542,0.15,0.711c0.103,0.107,0.374,0.201,0.815,0.278l4.773,0.838c0.373,0.065,0.625,0.085,0.753,0.059
						c0.098-0.021,0.188-0.081,0.272-0.182c0.115-0.145,0.188-0.304,0.221-0.479l0.046-0.261l0.201,0.035l-0.558,3.166l-0.201-0.036
						l0.048-0.267c0.053-0.301,0.003-0.537-0.152-0.706c-0.1-0.111-0.371-0.207-0.815-0.284l-4.771-0.838
						c-0.374-0.066-0.626-0.085-0.754-0.06c-0.098,0.021-0.188,0.083-0.274,0.188c-0.114,0.141-0.187,0.298-0.218,0.473
						L449.286,110.809z"/>
				</g>
				<g id="g301">
					<path id="path303" fill="#BBBBBB" d="M446.649,119.141l0.608-1.908l4.113-1.352c0.05-0.182,0.093-0.329,0.129-0.441
						c0.014-0.046,0.031-0.095,0.05-0.147c0.019-0.052,0.038-0.105,0.061-0.161l-2.076-0.662c-0.45-0.144-0.745-0.183-0.885-0.12
						c-0.198,0.083-0.34,0.259-0.426,0.526l-0.088,0.279l-0.194-0.062l0.978-3.062l0.194,0.062l-0.085,0.269
						c-0.098,0.302-0.067,0.55,0.088,0.742c0.085,0.109,0.332,0.228,0.739,0.359l4.615,1.473c0.449,0.144,0.745,0.184,0.887,0.12
						c0.196-0.087,0.341-0.267,0.427-0.537l0.085-0.269l0.196,0.062l-0.831,2.603c-0.243,0.759-0.478,1.301-0.702,1.626
						c-0.227,0.324-0.527,0.565-0.903,0.722c-0.378,0.157-0.771,0.169-1.183,0.038c-0.439-0.14-0.774-0.405-1.007-0.794
						c-0.231-0.39-0.317-0.906-0.261-1.55l-2.521,0.822c-0.578,0.187-0.982,0.377-1.216,0.57c-0.231,0.193-0.432,0.478-0.598,0.854
						L446.649,119.141z M451.942,115.238c-0.021,0.067-0.041,0.125-0.06,0.173c-0.017,0.048-0.03,0.089-0.041,0.121
						c-0.217,0.682-0.232,1.242-0.049,1.683c0.186,0.44,0.505,0.733,0.962,0.879c0.445,0.143,0.854,0.119,1.223-0.072
						c0.368-0.19,0.626-0.516,0.772-0.975c0.065-0.204,0.12-0.491,0.164-0.859L451.942,115.238z"/>
				</g>
				<g id="g309">
					<path id="path311" fill="#BBBBBB" d="M451.97,124.268l-2.657-1.315l-0.73,1.478c-0.191,0.384-0.26,0.668-0.207,0.854
						c0.066,0.247,0.287,0.476,0.66,0.686l-0.091,0.183l-2.341-1.159l0.093-0.183c0.349,0.116,0.582,0.174,0.697,0.173
						c0.146-0.002,0.283-0.055,0.416-0.158c0.135-0.103,0.271-0.295,0.408-0.576l0.732-1.478l-2.217-1.097
						c-0.298-0.147-0.484-0.224-0.563-0.229c-0.078-0.005-0.152,0.016-0.224,0.063c-0.069,0.047-0.151,0.163-0.242,0.349
						l-0.565,1.14c-0.188,0.38-0.299,0.669-0.33,0.867c-0.031,0.198-0.01,0.416,0.066,0.651c0.104,0.306,0.309,0.669,0.616,1.088
						l-0.099,0.198l-1.398-1.415l2.563-5.181l0.185,0.091l-0.117,0.238c-0.078,0.159-0.114,0.328-0.109,0.508
						c0,0.131,0.044,0.243,0.131,0.333c0.088,0.09,0.296,0.216,0.621,0.378l4.368,2.162c0.426,0.211,0.711,0.298,0.854,0.262
						c0.189-0.054,0.354-0.22,0.492-0.498l0.116-0.238l0.185,0.091l-2.563,5.181l-1.509-0.655l0.096-0.193
						c0.389,0.105,0.669,0.149,0.844,0.13c0.173-0.019,0.336-0.094,0.487-0.225c0.114-0.107,0.254-0.329,0.42-0.662L451.97,124.268z
						"/>
				</g>
				<g id="g317">
					<path id="path319" fill="#BBBBBB" d="M442.524,131.13l1.691-2.36l-0.664-1.103c-0.164-0.272-0.305-0.45-0.421-0.533
						c-0.095-0.067-0.207-0.081-0.341-0.043c-0.134,0.038-0.316,0.196-0.548,0.475l-0.167-0.119l1.377-1.92l0.166,0.119
						c-0.14,0.287-0.197,0.494-0.181,0.621c0.035,0.256,0.206,0.635,0.514,1.137l3.479,5.741l-0.111,0.158l-6.594-1.514
						c-0.529-0.121-0.904-0.156-1.127-0.104c-0.223,0.052-0.429,0.198-0.622,0.436L438.813,132l1.724-2.405l0.167,0.119
						c-0.162,0.252-0.24,0.445-0.232,0.58c0.01,0.135,0.063,0.238,0.16,0.309c0.132,0.095,0.384,0.184,0.754,0.268L442.524,131.13z
						 M442.948,131.242l3.204,0.732l-1.701-2.827L442.948,131.242z"/>
				</g>
				<g id="g325">
					<path id="path327" fill="#BBBBBB" d="M432.874,137.869l1.432-1.398l4.27,0.731c0.129-0.138,0.234-0.247,0.318-0.329
						c0.035-0.033,0.071-0.068,0.113-0.105c0.041-0.037,0.084-0.076,0.128-0.113l-1.522-1.56c-0.33-0.338-0.571-0.511-0.726-0.521
						c-0.214-0.018-0.422,0.07-0.622,0.267l-0.21,0.205l-0.143-0.146l2.298-2.246l0.143,0.146l-0.2,0.197
						c-0.228,0.222-0.316,0.455-0.271,0.698c0.024,0.136,0.188,0.355,0.485,0.662l3.389,3.466c0.329,0.337,0.571,0.511,0.727,0.521
						c0.216,0.016,0.426-0.076,0.629-0.273l0.202-0.197l0.143,0.146l-1.954,1.909c-0.569,0.558-1.03,0.927-1.382,1.108
						c-0.352,0.18-0.729,0.252-1.136,0.213c-0.407-0.039-0.762-0.212-1.063-0.521c-0.322-0.328-0.494-0.72-0.517-1.172
						c-0.023-0.453,0.143-0.951,0.496-1.492l-2.611-0.455c-0.6-0.105-1.047-0.127-1.342-0.066c-0.296,0.063-0.604,0.221-0.93,0.475
						L432.874,137.869z M439.38,136.9c-0.051,0.05-0.096,0.092-0.134,0.127s-0.069,0.063-0.092,0.087
						c-0.514,0.5-0.79,0.987-0.833,1.463s0.103,0.885,0.438,1.228c0.327,0.334,0.699,0.504,1.112,0.51
						c0.416,0.004,0.797-0.162,1.142-0.5c0.152-0.15,0.335-0.377,0.547-0.684L439.38,136.9z"/>
				</g>
				<g id="g333">
					<path id="path335" fill="#BBBBBB" d="M428.438,140.979l5.86,3.729l-2.721-4.21c-0.25-0.387-0.447-0.602-0.594-0.645
						c-0.198-0.056-0.423-0.004-0.669,0.156l-0.225,0.146l-0.111-0.173l2.194-1.416l0.11,0.172l-0.225,0.145
						c-0.266,0.172-0.401,0.375-0.409,0.607c-0.005,0.144,0.106,0.392,0.335,0.744l2.659,4.117c0.181,0.279,0.343,0.461,0.483,0.545
						c0.101,0.062,0.229,0.084,0.385,0.07c0.155-0.015,0.361-0.105,0.618-0.271l0.111,0.173l-1.784,1.153l-5.472-3.455l0.936,6.384
						l-1.784,1.151l-0.11-0.172l0.219-0.141c0.27-0.174,0.407-0.378,0.416-0.611c0.004-0.144-0.108-0.392-0.336-0.744l-2.659-4.117
						c-0.25-0.387-0.45-0.602-0.6-0.642c-0.197-0.056-0.422-0.004-0.67,0.156l-0.219,0.142l-0.109-0.172l2.677-1.729l0.11,0.172
						l-0.225,0.145c-0.27,0.174-0.406,0.377-0.41,0.607c-0.003,0.143,0.108,0.391,0.336,0.744l2.72,4.21l-0.993-6.872
						L428.438,140.979z"/>
				</g>
				<g id="g341">
					<path id="path343" fill="#BBBBBB" d="M421.806,152.958l-1.007-2.392l0.188-0.08c0.255,0.435,0.519,0.752,0.791,0.959
						c0.271,0.205,0.589,0.326,0.947,0.363c0.359,0.035,0.695-0.012,1.01-0.144c0.353-0.149,0.6-0.38,0.739-0.692
						c0.141-0.313,0.152-0.607,0.035-0.884c-0.089-0.211-0.242-0.372-0.462-0.483c-0.316-0.166-0.962-0.293-1.934-0.386
						c-0.791-0.075-1.346-0.153-1.658-0.239c-0.314-0.086-0.589-0.228-0.821-0.426c-0.232-0.197-0.408-0.435-0.523-0.709
						c-0.223-0.522-0.209-1.061,0.038-1.609s0.689-0.961,1.327-1.229c0.201-0.085,0.396-0.147,0.585-0.192
						c0.113-0.027,0.357-0.058,0.734-0.09c0.376-0.033,0.608-0.067,0.697-0.104c0.085-0.036,0.141-0.091,0.168-0.162
						c0.028-0.072,0.021-0.192-0.023-0.362l0.189-0.078l0.998,2.369l-0.188,0.079c-0.298-0.459-0.572-0.78-0.826-0.963
						c-0.253-0.185-0.567-0.292-0.943-0.325c-0.377-0.033-0.747,0.027-1.114,0.182c-0.426,0.18-0.714,0.434-0.865,0.761
						c-0.15,0.329-0.163,0.646-0.034,0.952c0.072,0.169,0.19,0.322,0.356,0.455c0.168,0.135,0.379,0.234,0.641,0.301
						c0.176,0.046,0.628,0.109,1.359,0.191c0.73,0.082,1.264,0.17,1.596,0.262c0.333,0.092,0.614,0.229,0.844,0.412
						c0.229,0.185,0.404,0.418,0.524,0.705c0.209,0.496,0.199,1.002-0.03,1.521c-0.229,0.52-0.639,0.902-1.227,1.15
						c-0.367,0.154-0.794,0.229-1.281,0.223c-0.226-0.005-0.378,0.009-0.456,0.042c-0.089,0.037-0.149,0.094-0.184,0.17
						s-0.034,0.202-0.001,0.375L421.806,152.958z"/>
				</g>
				<polyline id="polyline345" fill="#BBBBBB" points="398.023,151.813 400.866,151.766 401.698,149.048 402.624,151.736 
					405.46,151.684 403.195,153.398 404.113,156.087 401.791,154.459 399.526,156.169 400.35,153.443 398.023,151.813 				"/>
			</g>
			<g>
				<g>
					<path id="path19" fill="#333333" stroke="#333333" stroke-width="3.129" d="M373.26,124.144
						c-2.092-2.922-3.779-7.286-3.779-11.208l32.563-23.601l31.767,23.407c0,3.917-0.757,8.818-2.85,11.738l-29.113-20.987
						L373.26,124.144z"/>
					<polygon id="polygon23" fill="#FFFFFF" stroke="#FFFFFF" points="374.082,118.268 374.463,116.77 373.15,115.941 
						374.701,115.834 375.08,114.339 375.656,115.779 377.205,115.676 376.01,116.666 376.58,118.106 375.275,117.274 					"/>
					<polygon id="polygon27" fill="#FFFFFF" stroke="#FFFFFF" points="378.379,114.779 378.763,113.276 377.444,112.452 
						378.992,112.349 379.377,110.845 379.956,112.285 381.502,112.187 380.312,113.175 380.877,114.615 379.575,113.786 					"/>
					<polygon id="polygon31" fill="#FFFFFF" stroke="#FFFFFF" points="383.023,111.752 383.41,110.247 382.088,109.418 
						383.634,109.32 384.021,107.816 384.594,109.254 386.138,109.156 384.948,110.148 385.519,111.588 384.212,110.757 					"/>
					<polygon id="polygon35" fill="#FFFFFF" stroke="#FFFFFF" points="387.459,108.519 387.841,107.016 386.522,106.188 
						388.068,106.089 388.449,104.588 389.025,106.025 390.576,105.925 389.382,106.915 389.957,108.354 388.644,107.526 					"/>
					<polygon id="polygon39" fill="#FFFFFF" stroke="#FFFFFF" points="391.667,105.159 392.044,103.653 390.741,102.827 
						392.287,102.724 392.664,101.223 393.239,102.668 394.78,102.562 393.593,103.557 394.167,104.995 392.852,104.166 					"/>
					<polygon id="polygon43" fill="#FFFFFF" stroke="#FFFFFF" points="396.066,101.852 396.442,100.349 395.131,99.522 
						396.678,99.424 397.063,97.918 397.638,99.358 399.184,99.258 397.99,100.25 398.56,101.688 397.25,100.859 					"/>
					<polygon id="polygon47" fill="#FFFFFF" stroke="#FFFFFF" points="400.777,98.586 401.166,97.085 399.853,96.253 401.398,96.16 
						401.785,94.655 402.359,96.095 403.907,95.996 402.71,96.981 403.283,98.426 401.975,97.598 					"/>
					<polygon id="polygon51" fill="#FFFFFF" stroke="#FFFFFF" points="405.047,101.69 405.434,100.194 404.121,99.363 
						405.67,99.265 406.048,97.761 406.625,99.2 408.167,99.1 406.979,100.091 407.551,101.526 406.238,100.7 					"/>
					<polygon id="polygon55" fill="#FFFFFF" stroke="#FFFFFF" points="409.542,104.782 409.922,103.284 408.608,102.456 
						410.154,102.357 410.54,100.854 411.112,102.293 412.659,102.196 411.469,103.186 412.036,104.618 410.726,103.803 					"/>
					<polygon id="polygon59" fill="#FFFFFF" stroke="#FFFFFF" points="413.849,108.236 414.231,106.732 412.918,105.902 
						414.464,105.803 414.845,104.303 415.425,105.742 416.963,105.634 415.783,106.632 416.348,108.067 415.041,107.241 					"/>
					<polygon id="polygon63" fill="#FFFFFF" stroke="#FFFFFF" points="418.338,111.659 418.717,110.161 417.405,109.332 
						418.956,109.226 419.342,107.73 419.909,109.17 421.455,109.072 420.258,110.062 420.835,111.498 419.528,110.673 					"/>
					<polygon id="polygon67" fill="#FFFFFF" stroke="#FFFFFF" points="422.822,114.754 423.206,113.252 421.905,112.427 
						423.451,112.326 423.832,110.83 424.396,112.266 425.947,112.16 424.749,113.149 425.329,114.595 424.021,113.766 					"/>
					<polygon id="polygon71" fill="#FFFFFF" stroke="#FFFFFF" points="427.079,118.106 427.466,116.605 426.151,115.779 
						427.698,115.676 428.082,114.175 428.652,115.615 430.198,115.517 429.002,116.501 429.579,117.947 428.271,117.111 					"/>
				</g>
				<g>
					<path id="path351" fill="#BBBBBB" d="M401.598,142.734c0,0,3.871-4.973,14.87-7.59c0,0,7.542-1.119,14.272-10.667
						l-28.894-20.457l-28.393,20.144c5.494,8.862,15.069,11.03,15.069,11.03C396.839,137.743,401.598,142.734,401.598,142.734"/>
					<path id="path353" fill="none" stroke="#FFFFFF" stroke-width="3" d="M401.598,142.734c0,0,3.871-4.973,14.87-7.59
						c0,0,7.542-1.119,14.272-10.667l-28.894-20.457l-28.393,20.144c5.494,8.862,15.069,11.03,15.069,11.03
						C396.839,137.743,401.598,142.734,401.598,142.734z"/>
					<g>
						<path id="path357" fill="#333333" d="M412.821,125.809c0.215,2.696,1.134,4.781,3.636,4.796
							c3.017,0.017,3.497-2.971,3.497-6.355c0-3.389-0.59-5.908-3.524-5.898c-2.755,0.002-3.481,1.989-3.612,4.82l-0.02-0.032
							c0,0-1.004,0.165-1.22-0.643c0,0-0.215,0.701-1.128,0.674l-28.733,0.027c-1.763,1.421,0.011,2.557,0.011,2.557h1.407v4.04
							h3.23v-3.231h-1.296l0.034,0.756h-0.732v-1.511h4.557l-0.008,1.506l-0.669,0.005l-0.027-0.764h-1.295l-0.01,3.229l3.251,0.042
							v-3.986l20.521-0.032c0.698,0.032,0.973,0.836,0.973,0.836C411.857,125.708,412.821,125.809,412.821,125.809"/>
						<path id="path391" fill="#BBBBBB" d="M417.409,124.388c0.58,0.408,1.003,1.218,1.055,2.187c0.087,1.484-0.717,2.775-1.8,2.889
							c-1.081,0.116-2.02-0.991-2.107-2.476c-0.055-1.022,0.306-1.953,0.896-2.47l0.1-0.105c-0.58-0.416-0.996-1.235-1.041-2.202
							c-0.066-1.479,0.748-2.763,1.829-2.861c1.085-0.095,2.011,1.029,2.088,2.516c0.048,1.021-0.328,1.946-0.918,2.456
							L417.409,124.388"/>
						<path id="path401" fill="#333333" d="M391.499,126.387c1.042,0,1.887-0.885,1.887-1.963c0-1.085-0.845-1.96-1.887-1.96
							c-1.047,0-1.889,0.875-1.889,1.96C389.61,125.502,390.452,126.387,391.499,126.387"/>
					</g>
				</g>
				<g>
					<path id="path347" fill="#BBBBBB" d="M369.833,112.723l2.114-26.032c-0.191-10.201-3.588-11.172-3.588-11.172l13.265-7.993
						c12.586,7.262,20.045-2.255,20.045-2.255c11.15,10.677,20.596,2.465,20.596,2.465l13.813,7.887
						c-4.437,4.805-3.729,8.321-3.729,8.321l1.137,28.44l-31.44-23.141L369.833,112.723"/>
					<path id="path349" fill="none" stroke="#FFFFFF" stroke-width="3" d="M369.833,112.281l2.114-26.031
						c-0.191-10.201-3.588-11.172-3.588-11.172l13.265-7.993c12.586,7.262,20.045-2.255,20.045-2.255
						c11.15,10.677,20.596,2.465,20.596,2.465l13.813,7.887c-4.437,4.805-3.729,8.321-3.729,8.321l1.137,28.441l-31.44-23.141
						L369.833,112.281z"/>
					<path id="path355" fill="#333333" d="M403.655,83.939l-0.602-4.912h14.466c0.64,2.449,3.177,3.021,3.177,3.021l1.894-0.03
						c3.217-1.641,3.44-4.507,3.44-4.507l-1.707-0.377c-2.586,3.976-5.215,0.104-5.215,0.104l-14.22-3.114l-2.488,1.949
						l-0.875-6.414l-0.064-0.178l-0.961,6.597l-2.272-2.021l-14.24,2.999c0,0-2.656,3.843-5.223-0.148l-1.705,0.358
						c0,0,0.196,2.877,3.404,4.537l1.896,0.042c0,0,2.502-0.377,3.153-2.819l14.501-0.066h0.027l-0.216,5
						c0.503,1.763,1.93,1.582,1.93,1.582C403.475,85.723,403.655,83.939,403.655,83.939"/>
					<path id="path359" fill="#333333" d="M422.563,82.312l6.091,10.983c0,0-5.763,9.89-13.516,0.412l5.89-11.341L422.563,82.312"/>
					<path id="path361" fill="#333333" d="M380.605,81.979l-6.19,10.943c0,0,5.696,9.924,13.514,0.514l-5.785-11.39L380.605,81.979"
						/>
					<polyline id="polyline403" fill="#BBBBBB" points="381.514,81.796 381.488,93.037 387.213,92.997 381.514,81.796 					"/>
					<polyline id="polyline419" fill="#BBBBBB" points="421.584,82.519 421.552,93.273 415.86,93.273 421.584,82.519 					"/>
					<polyline id="polyline421" fill="#BBBBBB" points="380.949,82.261 380.956,92.973 374.906,92.973 380.949,82.261 					"/>
					<polyline id="polyline423" fill="#BBBBBB" points="422.09,82.458 422.124,93.244 428.103,93.25 422.09,82.458 					"/>
					<path id="path431" fill="#333333" stroke="#333333" stroke-width="5" d="M381.487,84.494c0.617,0,1.112-0.507,1.112-1.135
						c0-0.625-0.495-1.13-1.112-1.13c-0.615,0-1.11,0.505-1.11,1.13C380.378,83.986,380.872,84.494,381.487,84.494z"/>
					<path id="path431_1_" fill="#333333" stroke="#333333" stroke-width="5" d="M421.91,84.492c0.464,0,0.836-0.507,0.836-1.135
						c0-0.624-0.372-1.129-0.836-1.129c-0.462,0-0.833,0.505-0.833,1.129C421.078,83.984,421.448,84.492,421.91,84.492z"/>
				</g>
			</g>
		</g>
	</g>
</g>
<rect x="323" y="203.125" fill="none" width="156" height="53.543"/>
<text transform="matrix(1 0 0 1 370.625 221.0254)" fill="#333333" font-family="'Tahoma'" font-size="27">ATF</text>
<path fill="#333333" d="M843.042,72.313c-2.117-2.117-2.117-5.452,0-7.57c2.118-2.046,5.453-2.046,7.571,0l31.727,31.721
	c0.982,0.983,1.587,2.347,1.587,3.858c0,1.511-0.604,2.878-1.587,3.864l-31.727,31.722c-2.118,2.117-5.453,2.117-7.571,0
	c-2.117-2.118-2.117-5.451,0-7.57l22.717-22.639h-80.64c-2.952,0.004-5.299-2.418-5.299-5.371s2.347-5.3,5.299-5.3h80.634
	L843.042,72.313z"/>
<g>
	<circle fill="#BBBBBB" cx="689.696" cy="100.766" r="77.473"/>
	<g>
		<path fill="#FFFFFF" d="M732.264,122.63c0,9.193-3.263,16.644-7.287,16.644h-66.395c-4.025,0-7.288-7.45-7.288-16.644v-9.246
			c0-9.192,3.263-16.644,7.288-16.644h66.395c4.024,0,7.287,7.452,7.287,16.644V122.63z"/>
		<g>
			<path fill="#333333" stroke="#333333" d="M736.583,144.615V88.911V53.898c0-2.637-2.136-4.775-4.774-4.775h-17.506
				c-2.638,0-4.774,2.138-4.774,4.775v35.013H660.19l-15.915,15.916v39.788h-4.774v6.365h101.857v-6.365H736.583z M672.923,138.249
				h-14.324v-14.324h14.324V138.249z M672.923,115.967h-14.324v-14.324h14.324V115.967z M696.796,138.249h-14.323v-14.324h14.323
				V138.249z M696.796,115.967h-14.323v-14.324h14.323V115.967z M722.26,138.249h-14.324v-14.324h14.324V138.249z M722.26,115.967
				h-14.324v-14.324h14.324V115.967z"/>
		</g>
	</g>
</g>
<g>
	<circle fill="#BBBBBB" cx="971.289" cy="100.601" r="77.473"/>
	<g>
		<path fill="#FFFFFF" d="M1019.488,119.796c0,12.804-3.885,23.183-8.677,23.183h-79.056c-4.792,0-8.677-10.379-8.677-23.183v-12.88
			c0-12.802,3.885-23.182,8.677-23.182h79.057c4.791,0,8.676,10.38,8.676,23.182V119.796L1019.488,119.796z"/>
		<path fill="#FFFFFF" d="M1003.495,70.517c0,4.475-2.558,8.103-5.709,8.103h-52.033c-3.154,0-5.711-3.627-5.711-8.103v-4.501
			c0-4.475,2.557-8.103,5.711-8.103h52.033c3.151,0,5.709,3.628,5.709,8.103V70.517z"/>
		<g>
			<path fill="#333333" stroke="#333333" d="M939.725,116.355h24.188c1.396,0,2.525-1.13,2.525-2.526V100.3
				c0-1.396-1.13-2.526-2.525-2.526h-24.188c-1.396,0-2.527,1.131-2.527,2.526v13.529
				C937.196,115.226,938.328,116.355,939.725,116.355z M942.251,102.827h19.134v8.476h-19.134V102.827z"/>
			<path fill="#333333" stroke="#333333" d="M1017.807,82.884h-21.693v-4.216h6.896c1.396,0,2.527-1.131,2.527-2.527V60.439
				c0-1.396-1.131-2.527-2.527-2.527h-60.28c-1.396,0-2.525,1.131-2.525,2.527V76.14c0,1.396,1.131,2.527,2.525,2.527h6.896v4.216
				h-24.018c-1.396,0-2.526,1.131-2.526,2.527v55.352c0,1.396,1.13,2.527,2.526,2.527h92.199c1.396,0,2.527-1.131,2.527-2.527
				V85.411C1020.334,84.015,1019.202,82.884,1017.807,82.884L1017.807,82.884z M945.254,62.966h55.229v10.647h-55.229V62.966z
				 M954.679,78.667h36.38v4.216h-36.38V78.667z M1000.627,124.832h-8.886v-22.005h8.886V124.832z M988.462,129.886h15.444v1.505
				h-15.444V129.886L988.462,129.886z M985.442,136.443h0.491h20.499h0.493v1.793h-21.483V136.443z M1015.28,138.236h-3.302v-4.318
				c0-1.396-1.131-2.526-2.525-2.526h-0.492v-4.032c0-1.396-1.132-2.528-2.527-2.528h-0.753V100.3c0-1.396-1.131-2.526-2.526-2.526
				h-13.938c-1.396,0-2.525,1.131-2.525,2.526v24.532h-0.755c-1.395,0-2.525,1.131-2.525,2.528v4.032h-0.493
				c-1.396,0-2.527,1.131-2.527,2.526v4.318h-52.254V87.937h87.146v50.299H1015.28z"/>
		</g>
	</g>
</g>
<rect x="606" y="202.57" fill="none" width="168" height="54.097"/>
<text transform="matrix(1 0 0 1 608.2754 220.4727)" fill="#333333" font-family="'Tahoma'" font-size="27">Manufacturer</text>
<rect x="894" y="202.534" fill="none" width="154.762" height="54.133"/>
<text transform="matrix(1 0 0 1 904.1426 220.4355)" fill="#333333" font-family="'Tahoma'" font-size="27">Wholesaler</text>
<path fill="#BBBBBB" d="M1613.196,100.349c0,42.79-34.685,77.471-77.472,77.471c-42.786,0-77.474-34.682-77.474-77.471
	c0-42.787,34.688-77.472,77.474-77.472C1578.512,22.877,1613.196,57.562,1613.196,100.349z"/>
<g>
	<path fill="#FFFFFF" d="M1858.67,240.979c0,17.797-4.49,32.224-10.027,32.224h-91.384c-5.54,0-10.03-14.427-10.03-32.224v-17.905
		c0-17.796,4.49-32.226,10.03-32.226h91.384c5.537,0,10.027,14.43,10.027,32.226V240.979z"/>
	<path fill="#333333" stroke="#333333" d="M1786.781,227.038c1.738-2.017,2.788-4.644,2.788-7.509
		c0-6.348-5.164-11.512-11.514-11.512c-6.349,0-11.515,5.164-11.515,11.512c0,2.865,1.052,5.492,2.789,7.509
		c-4.036,2.159-6.789,6.418-6.789,11.308v10.059c0,1.523,1.233,2.758,2.757,2.758h25.515c1.523,0,2.758-1.232,2.758-2.758v-10.059
		C1793.571,233.456,1790.818,229.197,1786.781,227.038z M1778.057,213.529c3.31,0,6,2.691,6,6c0,3.291-2.658,5.97-5.939,6.003h-0.12
		c-3.281-0.033-5.94-2.712-5.94-6.003C1772.056,216.221,1774.748,213.529,1778.057,213.529z M1788.058,245.648h-20.002v-7.303
		c0-4.025,3.275-7.301,7.301-7.301h2.616c0.057,0,0.111,0,0.167,0h2.617c4.026,0,7.301,3.275,7.301,7.301V245.648L1788.058,245.648z
		 M1805.594,217.443c0-1.523,1.233-2.758,2.757-2.758h14.901c1.523,0,2.758,1.233,2.758,2.758c0,1.521-1.233,2.756-2.758,2.756
		h-14.901C1806.827,220.199,1805.594,218.965,1805.594,217.443z M1848.35,186h-7.476c-0.036-0.001-0.072-0.001-0.109,0h-14.361
		c-0.036-0.001-0.073-0.001-0.108,0h-14.362c-0.037-0.001-0.073-0.001-0.108,0h-14.363c-0.037-0.001-0.073-0.001-0.109,0h-14.361
		c-0.037-0.001-0.073-0.001-0.108,0h-14.362c-0.037-0.001-0.073-0.001-0.109,0h-11.112c-6.436,0-11.671,5.236-11.671,11.669v63.836
		c0,6.435,5.235,11.67,11.671,11.67h7.478c0.036,0.003,0.073,0.003,0.109,0h14.361c0.037,0.003,0.073,0.003,0.108,0h14.363
		c0.036,0.003,0.072,0.003,0.108,0h14.363c0.036,0.003,0.071,0.003,0.107,0h14.363c0.018,0,0.035,0.003,0.055,0.003
		c0.017,0,0.036-0.003,0.055-0.003h14.362c0.035,0.003,0.072,0.003,0.108,0h11.11c6.436,0,11.671-5.235,11.671-11.67v-63.836
		C1860.021,191.236,1854.787,186,1848.35,186z M1854.508,261.506c0,3.395-2.761,6.157-6.158,6.157h-6.584l1.488-2.81
		c0.712-1.346,0.198-3.015-1.146-3.727c-1.347-0.713-3.016-0.2-3.728,1.145l-2.854,5.392h-8.232l1.487-2.81
		c0.712-1.346,0.199-3.015-1.146-3.727c-1.346-0.713-3.013-0.2-3.727,1.145l-2.854,5.392h-8.231l1.487-2.81
		c0.714-1.346,0.199-3.015-1.146-3.727c-1.346-0.713-3.015-0.2-3.728,1.145l-2.854,5.392h-8.232l1.487-2.81
		c0.713-1.346,0.199-3.015-1.146-3.727c-1.348-0.713-3.016-0.2-3.729,1.145l-2.854,5.392h-8.232l1.487-2.81
		c0.712-1.346,0.198-3.015-1.146-3.727c-1.347-0.713-3.014-0.2-3.728,1.145l-2.854,5.392h-8.23l1.486-2.81
		c0.713-1.346,0.2-3.015-1.146-3.727c-1.345-0.713-3.013-0.2-3.726,1.145l-2.854,5.392h-5.874c-3.395,0-6.155-2.763-6.155-6.157
		V197.67c0-3.393,2.762-6.155,6.155-6.155h6.586l-1.487,2.808c-0.713,1.347-0.199,3.015,1.146,3.728
		c1.346,0.713,3.014,0.2,3.728-1.146l2.854-5.39h8.23l-1.485,2.808c-0.714,1.347-0.2,3.015,1.145,3.728
		c1.349,0.713,3.016,0.2,3.729-1.146l2.854-5.39h8.232l-1.486,2.81c-0.714,1.345-0.199,3.013,1.146,3.726
		c1.345,0.713,3.014,0.2,3.726-1.146l2.854-5.39h8.231l-1.485,2.808c-0.713,1.347-0.2,3.015,1.146,3.728s3.014,0.2,3.728-1.146
		l2.854-5.39h8.233l-1.488,2.808c-0.712,1.347-0.199,3.015,1.146,3.728c1.345,0.713,3.015,0.2,3.727-1.146l2.854-5.39h8.231
		l-1.488,2.808c-0.712,1.347-0.198,3.015,1.146,3.728s3.015,0.2,3.727-1.146l2.854-5.39h5.874c3.395,0,6.157,2.763,6.157,6.155
		v63.836H1854.508L1854.508,261.506z M1843.574,241.732c0,1.523-1.234,2.758-2.757,2.758h-32.468c-1.522,0-2.757-1.233-2.757-2.758
		c0-1.521,1.233-2.756,2.757-2.756h32.468C1842.34,238.977,1843.574,240.212,1843.574,241.732z M1843.574,230.781
		c0,1.523-1.234,2.756-2.757,2.756h-32.468c-1.522,0-2.757-1.232-2.757-2.756s1.233-2.756,2.757-2.756h32.468
		C1842.34,228.025,1843.574,229.258,1843.574,230.781z"/>
</g>
<g>
	<path fill="#BBBBBB" d="M1328.945,100.052c0,42.789-34.688,77.472-77.474,77.472c-42.787,0-77.473-34.683-77.473-77.472
		c0-42.787,34.686-77.472,77.473-77.472S1328.945,57.265,1328.945,100.052z"/>
	<g>
		<path fill="#FFFFFF" d="M1307.723,109.205c0,18.915-4.473,34.246-9.994,34.246h-91.082c-5.521,0-9.997-15.331-9.997-34.246V90.179
			c0-18.911,4.476-34.245,9.997-34.245h91.082c5.521,0,9.994,15.334,9.994,34.245V109.205z"/>
		<path fill="#333333" stroke="#333333" d="M1236.533,96.972c1.738-2.018,2.79-4.643,2.79-7.508c0-6.349-5.165-11.514-11.515-11.514
			s-11.516,5.165-11.516,11.514c0,2.865,1.053,5.49,2.791,7.508c-4.037,2.159-6.79,6.418-6.79,11.309v10.057
			c0,1.523,1.234,2.758,2.758,2.758h25.516c1.521,0,2.756-1.235,2.756-2.758v-10.057
			C1243.323,103.391,1240.571,99.131,1236.533,96.972z M1227.811,83.465c3.309,0,6,2.691,6,6c0,3.289-2.659,5.968-5.939,6.001
			h-0.121c-3.282-0.033-5.939-2.712-5.939-6.001C1221.811,86.156,1224.5,83.465,1227.811,83.465z M1237.811,115.581h-20.002v-7.3
			c0-4.027,3.274-7.302,7.302-7.302h2.616c0.057,0,0.111,0,0.168,0h2.616c4.024,0,7.3,3.275,7.3,7.302V115.581L1237.811,115.581z
			 M1255.347,87.377c0-1.523,1.234-2.757,2.757-2.757h14.902c1.522,0,2.757,1.234,2.757,2.757c0,1.522-1.233,2.756-2.757,2.756
			h-14.902C1256.581,90.133,1255.347,88.899,1255.347,87.377z M1298.104,55.935h-7.476c-0.036-0.001-0.073-0.001-0.108,0h-14.362
			c-0.037-0.001-0.073-0.001-0.109,0h-14.362c-0.037-0.001-0.072-0.001-0.109,0h-14.363c-0.035-0.001-0.071-0.001-0.108,0h-14.361
			c-0.036-0.001-0.073-0.001-0.109,0h-14.362c-0.036-0.001-0.072-0.001-0.108,0h-11.112c-6.436,0-11.67,5.236-11.67,11.669v63.835
			c0,6.437,5.234,11.672,11.67,11.672h7.477c0.037,0,0.073,0,0.11,0H1229c0.036,0,0.072,0,0.108,0h14.362c0.036,0,0.073,0,0.109,0
			h14.361c0.036,0,0.073,0,0.108,0h14.363c0.018,0,0.037,0,0.054,0c0.02,0,0.037,0,0.057,0h14.361c0.036,0,0.072,0,0.109,0h11.109
			c6.437,0,11.672-5.236,11.672-11.672V67.604C1309.774,61.17,1304.539,55.935,1298.104,55.935z M1304.261,131.439
			c0,3.396-2.762,6.157-6.157,6.157h-6.584l1.486-2.808c0.714-1.345,0.2-3.014-1.145-3.728c-1.349-0.711-3.017-0.197-3.729,1.147
			l-2.854,5.389h-8.232l1.486-2.809c0.714-1.346,0.199-3.014-1.146-3.728c-1.348-0.711-3.015-0.2-3.728,1.147l-2.854,5.388h-8.231
			l1.485-2.808c0.713-1.345,0.2-3.014-1.146-3.728c-1.348-0.711-3.015-0.2-3.729,1.147l-2.853,5.388h-8.233l1.487-2.808
			c0.713-1.346,0.198-3.014-1.146-3.728c-1.347-0.711-3.014-0.2-3.728,1.147l-2.854,5.388h-8.232l1.486-2.808
			c0.713-1.345,0.199-3.014-1.146-3.728c-1.346-0.711-3.015-0.2-3.728,1.147l-2.854,5.388h-8.232l1.488-2.808
			c0.712-1.346,0.199-3.014-1.146-3.728c-1.345-0.711-3.015-0.2-3.727,1.147l-2.854,5.388h-5.875c-3.395,0-6.155-2.761-6.155-6.157
			V67.604c0-3.394,2.762-6.155,6.155-6.155h6.586l-1.486,2.808c-0.713,1.346-0.2,3.014,1.146,3.726
			c1.347,0.713,3.015,0.2,3.729-1.145l2.853-5.389h8.233l-1.488,2.808c-0.712,1.346-0.198,3.014,1.146,3.726
			c1.346,0.713,3.014,0.2,3.728-1.145l2.854-5.389h8.232l-1.487,2.809c-0.712,1.345-0.198,3.013,1.146,3.725
			c1.345,0.713,3.016,0.2,3.728-1.145l2.854-5.389h8.232l-1.486,2.808c-0.714,1.346-0.2,3.014,1.146,3.726
			c1.345,0.713,3.015,0.2,3.728-1.145l2.854-5.389h8.231l-1.485,2.808c-0.715,1.346-0.2,3.014,1.145,3.726
			c1.348,0.713,3.016,0.2,3.729-1.145l2.854-5.389h8.232l-1.486,2.808c-0.713,1.346-0.2,3.014,1.146,3.726
			c1.346,0.713,3.014,0.2,3.728-1.145l2.854-5.389h5.874c3.396,0,6.156,2.762,6.156,6.155L1304.261,131.439L1304.261,131.439z
			 M1293.326,111.669c0,1.521-1.233,2.756-2.756,2.756h-32.469c-1.521,0-2.756-1.235-2.756-2.756c0-1.523,1.234-2.759,2.756-2.759
			h32.469C1292.093,108.91,1293.326,110.146,1293.326,111.669z M1293.326,100.716c0,1.523-1.233,2.756-2.756,2.756h-32.469
			c-1.521,0-2.756-1.233-2.756-2.756c0-1.523,1.234-2.757,2.756-2.757h32.469C1292.093,97.959,1293.326,99.192,1293.326,100.716z"/>
	</g>
</g>
<rect x="1174" y="203.124" fill="none" width="156" height="53.545"/>
<text transform="matrix(1 0 0 1 1211.3896 221.0244)" fill="#333333" font-family="'Tahoma'" font-size="27">Dealer</text>
<rect x="1457.875" y="200.999" fill="none" width="155.321" height="55.669"/>
<text transform="matrix(1 0 0 1 1463.4063 218.9004)" fill="#333333" font-family="'Tahoma'" font-size="27">Purchaser</text>
<path fill="#333333" d="M556.084,73.616c-2.118-2.117-2.118-5.452,0-7.57c2.118-2.046,5.452-2.046,7.57,0l31.727,31.721
	c0.982,0.983,1.588,2.348,1.588,3.859c0,1.511-0.604,2.876-1.588,3.864l-31.727,31.721c-2.118,2.118-5.452,2.118-7.57,0
	s-2.118-5.452,0-7.57l22.715-22.639H498.16c-2.952,0.004-5.3-2.419-5.3-5.372c0-2.952,2.348-5.299,5.3-5.299h80.635L556.084,73.616z
	"/>
<path fill="#333333" d="M1120.926,73.18c-2.118-2.117-2.118-5.452,0-7.57c2.118-2.046,5.452-2.046,7.569,0l31.728,31.721
	c0.982,0.983,1.588,2.348,1.588,3.859c0,1.511-0.604,2.876-1.588,3.864l-31.728,31.721c-2.117,2.117-5.451,2.117-7.569,0
	c-2.117-2.118-2.118-5.452,0-7.57l22.715-22.639h-80.639c-2.952,0.004-5.3-2.419-5.3-5.372c0-2.952,2.348-5.299,5.3-5.299h80.635
	L1120.926,73.18z"/>
<g>
	<g>
		<path fill="#333333" d="M1406.13,72.482c-2.118-2.117-2.118-5.452,0-7.57c2.118-2.046,5.452-2.046,7.57,0l31.727,31.722
			c0.982,0.982,1.588,2.347,1.588,3.859c0,1.512-0.604,2.876-1.588,3.864l-31.727,31.722c-2.118,2.118-5.452,2.118-7.57,0
			s-2.118-5.453,0-7.571l22.715-22.64h-80.639c-2.952,0.005-5.3-2.418-5.3-5.371c0-2.952,2.348-5.299,5.3-5.299h80.635
			L1406.13,72.482z"/>
	</g>
</g>
<g>
	<path fill="#FFFFFF" stroke="#000000" stroke-width="5" d="M1535.725,97.28c9.824,0,17.789-9.675,17.789-21.607
		c0-11.934-2.615-21.607-17.789-21.607s-17.789,9.674-17.789,21.607C1517.936,87.605,1525.899,97.28,1535.725,97.28z"/>
	<path fill="#FFFFFF" stroke="#000000" stroke-width="5" d="M1502.123,130.271C1502.121,129.543,1502.118,130.065,1502.123,130.271
		L1502.123,130.271z"/>
	<path fill="#FFFFFF" stroke="#000000" stroke-width="5" d="M1569.322,130.838C1569.333,130.64,1569.326,129.457,1569.322,130.838
		L1569.322,130.838z"/>
	<path fill="#FFFFFF" stroke="#000000" stroke-width="5" d="M1569.284,129.398c-0.328-20.788-3.044-26.711-23.819-30.461
		c0,0-2.924,3.727-9.742,3.727c-6.814,0-9.739-3.727-9.739-3.727c-20.549,3.708-23.429,9.544-23.809,29.786
		c-0.029,1.653-0.046,1.74-0.052,1.548c0.002,0.359,0.004,1.024,0.004,2.184c0,0,4.946,9.971,33.596,9.971
		c28.653,0,33.6-9.971,33.6-9.971c0-0.745,0.001-1.263,0.001-1.616C1569.316,130.958,1569.307,130.728,1569.284,129.398z"/>
</g>
</svg>
